<svg width="80" height="81" viewBox="0 0 80 81" fill="none" xmlns="http://www.w3.org/2000/svg">
<path d="M80 40.0195C80 62.1109 62.0914 80.0195 40 80.0195C33.6908 80.0195 27.7227 78.5587 22.4155 75.957C22.1183 75.8112 6.055 61.1952 5.79641 60.77C2.11828 54.7202 0 47.6172 0 40.0195C0 17.9281 17.9086 0.0195312 40 0.0195312C62.0914 0.0195312 80 17.9281 80 40.0195Z" fill="#76B6FA"/>
<path d="M69.856 40.0188C69.856 56.5082 56.4887 69.8755 39.9993 69.8755C23.5099 69.8755 10.1426 56.5082 10.1426 40.0188C10.1426 23.5295 23.5099 10.1621 39.9993 10.1621C56.4887 10.1621 69.856 23.5295 69.856 40.0188Z" fill="#3493F8"/>
<path d="M49.8956 43.2091L57.4583 37.6729C58.0063 37.2718 58.7698 37.7126 58.6964 38.3877L57.6833 47.7052C57.6464 48.0438 57.8331 48.3671 58.1447 48.5046L66.7205 52.2859C67.3419 52.5599 67.3419 53.4415 66.7205 53.7155L58.1447 57.4968C57.8331 57.6341 57.6464 57.9576 57.6833 58.2962L58.6964 67.6137C58.7698 68.2888 58.0063 68.7296 57.4583 68.3285L49.8956 62.7923C49.6208 62.5912 49.2475 62.5912 48.9727 62.7923L41.41 68.3285C40.862 68.7296 40.0984 68.2888 40.1719 67.6137L41.185 58.2962C41.2219 57.9576 41.0352 57.6343 40.7236 57.4968L32.1478 53.7155C31.5264 53.4415 31.5264 52.5599 32.1478 52.2859L40.7236 48.5046C41.0352 48.3673 41.2219 48.0438 41.185 47.7052L40.1719 38.3877C40.0984 37.7126 40.862 37.2718 41.41 37.6729L48.9727 43.2091C49.2473 43.4104 49.6208 43.4104 49.8956 43.2091ZM16.3398 27.123C16.3398 28.4174 14.9408 29.4668 13.2148 29.4668C11.4889 29.4668 10.0898 28.4174 10.0898 27.123C10.0898 25.8287 11.4889 24.7793 13.2148 24.7793C13.4852 24.7793 13.7459 24.8077 13.9961 24.8562V16.5762C13.9961 15.929 14.5208 15.4043 15.168 15.4043C15.8152 15.4043 16.3398 15.929 16.3398 16.5762V27.123Z" fill="#C8E2FD"/>
<path d="M61.415 40.7496C65.0412 39.9549 68.4228 39.5705 71.2841 39.5855C75.8189 39.6093 76.4355 41.6823 72.668 44.2062C69.2977 46.464 64.6134 48.6301 59.2519 50.2455L48.432 53.5055C44.1573 54.7935 40.2952 57.1802 37.2312 60.4274L35.5561 62.2027L31.0358 66.9934L22.4164 75.9588C15.5316 72.5837 9.75906 67.2885 5.79688 60.771L15.5445 51.5024L19.1883 48.1085L21.6692 45.7976C23.24 44.3344 24.0687 42.2419 23.9259 40.1001L22.8442 23.8785C22.5784 19.8935 23.0572 16.2091 24.0602 13.3701C25.1827 10.193 27.3403 10.0491 28.8747 13.049C30.2458 15.7298 31.2095 19.318 31.4753 23.303L31.5002 23.6757C31.6658 26.1591 34.967 26.8955 36.1723 24.7179L42.2834 13.6776C44.9947 8.77945 48.1008 4.6596 51.0192 1.84241C54.2872 -1.31212 56.1809 -0.263835 55.2428 4.18023C54.405 8.14898 52.563 12.9687 49.8517 17.8668L47.0375 22.951C46.8169 23.3494 46.8869 23.8459 47.2089 24.1679L47.4716 24.4305C47.8705 24.8294 48.5172 24.8294 48.9161 24.4305L54.2809 19.0657C58.2405 15.106 62.3648 12.0038 65.9484 10.1026C69.9778 7.96476 71.4986 9.48554 69.3608 13.5149C67.4595 17.0985 64.3573 21.2229 60.3977 25.1824L55.0328 30.5473C54.6339 30.9462 54.6339 31.5929 55.0328 31.9918C55.3708 32.3298 55.8978 32.3882 56.3016 32.1324L60.225 29.6473C64.9545 26.6516 69.657 24.5282 73.5694 23.4577C77.9505 22.2588 79.1086 24.0876 76.1525 27.536C73.5125 30.6155 69.5833 33.9594 64.8536 36.9551L60.8897 39.4657C60.2253 39.8866 60.6464 40.918 61.415 40.7496Z" fill="#F2D1A5"/>
<path d="M77.7091 24.9736C70.2 26.7836 62.357 31.4964 58.0869 34.0821C56.4473 35.0749 55.2223 33.4469 55.6094 32.2785C55.8439 32.3122 56.0897 32.2646 56.3016 32.1303L60.225 29.6452C64.9545 26.6496 69.657 24.5261 73.5694 23.4556C76.678 22.6052 78.1639 23.2788 77.7091 24.9736ZM55.4262 1.41753C55.1048 -0.526849 53.4386 -0.494974 51.0192 1.84049C48.1008 4.65768 44.9947 8.77753 42.2834 13.6757L38.143 21.1063C37.3659 22.5008 36.7034 24.0478 35.6194 25.2149C35.2914 25.568 34.8706 25.8203 34.318 25.9855C35.0081 27.9042 38.4905 28.8997 40.3394 25.8528L46.6839 13.6831C49.2923 8.72956 52.3117 4.54565 55.1708 1.66831C55.257 1.58174 55.3422 1.49815 55.4262 1.41753ZM27.4619 24.2877C27.1131 20.3091 27.5147 16.6155 28.4583 13.7561C28.5617 13.4425 28.6759 13.158 28.7989 12.9022C27.27 10.0527 25.1642 10.243 24.0602 13.3681C23.0572 16.2072 22.5784 19.8917 22.8442 23.8766L23.9259 40.0981C24.0687 42.24 23.24 44.3325 21.6692 45.7956L19.1883 48.1066L15.5445 51.5005L5.79688 60.7691C6.58578 62.0667 7.44656 63.3161 8.37344 64.5114L20.7402 52.0578L21.5381 51.2828L26.7444 46.2263C28.2844 44.7306 29.0692 42.6214 28.8817 40.483L27.4619 24.2877ZM65.9484 10.1006C62.3648 12.0019 58.2406 15.1041 54.2809 19.0638L48.9161 24.4286C48.7117 24.633 48.4422 24.7327 48.1742 24.7275C47.4423 26.7774 49.4947 27.7255 50.4697 26.9421L54.1806 23.6524C57.3861 20.4469 66.9169 12.7939 70.1241 9.69378C69.6123 8.85628 68.1573 8.92862 65.9484 10.1006ZM61.415 40.7478C61.2058 40.7938 61.0222 40.7506 60.8794 40.655C60.215 41.0772 59.8767 44.2117 63.3213 43.3594C67.1884 42.4024 68.9875 41.3503 71.7848 40.7488C72.8947 40.5102 73.8317 40.3755 74.5756 40.286C73.9663 39.8486 72.8625 39.5921 71.2841 39.5838C68.4228 39.5688 65.0412 39.9531 61.415 40.7478Z" fill="#F2BB88"/>
<path d="M26.305 12.638C25.358 12.7444 24.8193 14.8698 24.9905 16.3939C25.1618 17.918 25.9779 18.2636 26.9249 18.1572C27.8719 18.0508 28.5911 17.533 28.42 16.0088C28.249 14.4845 27.2521 12.5316 26.305 12.638ZM53.7516 1.86531C52.9216 1.39703 51.2405 2.80484 50.4869 4.14063C49.7333 5.47641 50.1927 6.23438 51.0227 6.70266C51.8527 7.17094 52.7389 7.17203 53.4925 5.83625C54.2461 4.50047 54.5816 2.33359 53.7516 1.86531ZM69.1379 10.6148C68.5089 9.89891 66.4574 10.6727 65.305 11.6848C64.1527 12.697 64.3361 13.5641 64.965 14.28C65.594 14.9959 66.4302 15.2897 67.5824 14.2775C68.7346 13.2653 69.7668 11.3309 69.1379 10.6148ZM76.5032 24.6205C76.0693 23.8805 74.1241 24.2152 72.9333 24.9134C71.7425 25.6117 71.7569 26.4095 72.1908 27.1494C72.6247 27.8892 73.3139 28.2913 74.5047 27.593C75.6955 26.8947 76.9371 25.3605 76.5032 24.6205ZM74.2388 41.3394C74.0416 40.5216 72.1205 40.2833 70.8043 40.6008C69.488 40.9183 69.275 41.6711 69.4724 42.4891C69.6696 43.3069 70.2024 43.88 71.5186 43.5625C72.8347 43.245 74.4361 42.1572 74.2388 41.3394Z" fill="#FF50B5"/>
<path d="M39.523 63.3689L34.0389 68.8529C33.5813 69.3106 32.8394 69.3106 32.3818 68.8529L13.853 50.3243C13.3954 49.8667 13.3954 49.1246 13.853 48.6671L19.3371 43.1831C19.7947 42.7254 20.5368 42.7254 20.9943 43.1831L39.5229 61.7117C39.9807 62.1692 39.9807 62.9112 39.523 63.3689Z" fill="#FF2EA6"/>
<path d="M39.9513 63.7971L34.4672 69.2812C34.0096 69.7389 33.2677 69.7389 32.8099 69.2812L16.978 53.4493C16.5204 52.9917 16.5204 52.2496 16.978 51.7921L22.4621 46.3081C22.9197 45.8504 23.6618 45.8504 24.1193 46.3081L39.9511 62.14C40.409 62.5976 40.409 63.3395 39.9513 63.7971Z" fill="#FF50B5"/>
<path d="M15.168 35.6582C15.4916 35.6582 15.7847 35.7895 15.9967 36.0015C16.2087 36.2135 16.34 36.5065 16.34 36.8302C16.34 37.4774 15.8153 38.0021 15.1681 38.0021C11.5066 38.0021 8.5275 40.9812 8.5275 44.6427C8.5275 45.2899 8.00281 45.8146 7.35562 45.8146C6.70812 45.8145 6.18359 45.2899 6.18359 44.6426C6.18375 39.6887 10.2141 35.6584 15.168 35.6582ZM10.0898 46.2605C10.09 46.9079 10.6145 47.4324 11.2619 47.4326C11.9091 47.4326 12.4338 46.9079 12.4338 46.2607C12.4338 43.8607 14.3862 41.9082 16.7861 41.9084C17.4333 41.9084 17.958 41.3837 17.958 40.7365C17.958 40.4129 17.8267 40.1198 17.6147 39.9077C17.4027 39.6957 17.1097 39.5645 16.7859 39.5645C13.0937 39.5645 10.0898 42.5684 10.0898 46.2605Z" fill="#FFF5F5"/>
<path d="M42.1896 60.7013C41.6821 61.2088 40.8593 61.2088 40.3516 60.7013L22.0037 42.3534C21.4962 41.8459 21.4962 41.0229 22.0037 40.5154C22.5112 40.0079 23.3341 40.0079 23.8416 40.5154L42.1896 58.8634C42.6971 59.371 42.6971 60.1938 42.1896 60.7013Z" fill="#453D83"/>
<path d="M37.9455 56.2786L37.7649 56.4592C37.3072 56.9168 36.5652 56.9168 36.1075 56.4592L28.9429 49.2945C28.4852 48.8368 28.4852 48.0948 28.9429 47.6371L29.1235 47.4565C29.5811 46.9989 30.3232 46.9989 30.7808 47.4565L37.9455 54.6212C38.4032 55.079 38.4032 55.8211 37.9455 56.2786Z" fill="#5F55AF"/>
<path d="M36.4979 62.6991L33.7261 65.4708C32.9566 66.2402 31.7091 66.2402 30.9397 65.4708L30.7588 65.2897C29.9893 64.5203 29.9893 63.2727 30.7588 62.5033L30.8858 62.3762C31.565 61.697 32.6169 61.6175 33.3835 62.1377L34.66 60.8611C35.1675 60.3536 35.9905 60.3536 36.498 60.8611C37.0054 61.3688 37.0054 62.1916 36.4979 62.6991Z" fill="#FFF5F5"/>
<path d="M14.089 57.6847C12.882 58.8919 10.9248 58.8919 9.71777 57.6847C8.51074 56.4777 8.51074 54.5207 9.71777 53.3135C10.9248 52.1064 12.882 52.1064 14.089 53.3135C15.2961 54.5207 15.2961 56.4777 14.089 57.6847Z" fill="#FF2EA6"/>
<path d="M17.2121 60.8058C16.005 62.013 14.0479 62.013 12.8408 60.8058C11.6338 59.5988 11.6338 57.6418 12.8408 56.4346C14.0479 55.2275 16.005 55.2275 17.2121 56.4346C18.4191 57.6418 18.4191 59.5988 17.2121 60.8058Z" fill="#453D83"/>
<path d="M20.3351 63.9289C19.1279 65.1359 17.1709 65.1359 15.9639 63.9289C14.7568 62.7218 14.7568 60.7646 15.9639 59.5576C17.1709 58.3506 19.1281 58.3506 20.3351 59.5576C21.5421 60.7648 21.5421 62.7218 20.3351 63.9289Z" fill="#FF2EA6"/>
<path d="M23.4563 67.0519C22.2491 68.2589 20.2921 68.2589 19.0851 67.0519C17.8779 65.8449 17.8779 63.8877 19.0851 62.6807C20.2921 61.4736 22.2491 61.4736 23.4563 62.6807C24.6634 63.8879 24.6634 65.8449 23.4563 67.0519Z" fill="#453D83"/>
<path d="M26.5794 70.173C25.3722 71.38 23.4152 71.38 22.2081 70.173C21.0009 68.966 21.0009 67.0088 22.2081 65.8018C23.4152 64.5947 25.3722 64.5947 26.5794 65.8018C27.7866 67.0088 27.7866 68.966 26.5794 70.173Z" fill="#FF2EA6"/>
<path d="M29.7005 73.2961C28.4934 74.5031 26.5363 74.5031 25.3292 73.2961C24.122 72.089 24.122 70.1318 25.3292 68.9248C26.5363 67.7178 28.4934 67.7178 29.7005 68.9248C30.9075 70.1318 30.9077 72.089 29.7005 73.2961Z" fill="#453D83"/>
</svg>
