<svg width="80" height="81" viewBox="0 0 80 81" fill="none" xmlns="http://www.w3.org/2000/svg">
<path d="M79.9958 40.5895C79.6922 62.3939 61.7908 80.0278 39.9842 80.0195C33.0539 80.0169 26.5356 78.2517 20.8533 75.1481C20.0531 74.7111 19.7211 73.7347 20.0855 72.8989C22.2181 68.0069 23.4011 62.6058 23.4011 56.9283C23.4011 42.7369 16.0108 30.2717 4.86875 23.1713C4.36 22.847 4.17843 22.1897 4.45578 21.6541C11.1097 8.80234 24.5291 0.0195312 39.9997 0.0195312C62.2808 0.0195312 80.3069 18.237 79.9958 40.5895Z" fill="#6100C1"/>
<path d="M71.0958 35.6202C71.0958 53.6595 56.472 68.2833 38.4327 68.2833C20.3933 68.2833 5.76953 53.6595 5.76953 35.6202C5.76953 17.5808 20.3933 2.95703 38.4327 2.95703C56.472 2.95703 71.0958 17.5809 71.0958 35.6202Z" fill="#4F0698"/>
<path d="M68.1873 8.94916L77.3567 7.00838C78.021 6.86775 78.5362 7.58338 78.1918 8.16869L73.4404 16.2474C73.2677 16.541 73.3051 16.9124 73.5327 17.1657L79.7982 24.1362C80.2523 24.6413 79.8899 25.4451 79.2109 25.4396L69.8387 25.3642C69.4982 25.3613 69.1951 25.5796 69.0896 25.9034L66.1857 34.8146C65.9752 35.4604 65.0981 35.5485 64.7632 34.9578L60.1424 26.8035C59.9746 26.5073 59.6342 26.3538 59.301 26.4243L50.1317 28.3651C49.4673 28.5057 48.9521 27.7901 49.2965 27.2048L54.0479 19.126C54.2206 18.8324 54.1832 18.461 53.9556 18.2078L47.6901 11.2373C47.236 10.7321 47.5984 9.92838 48.2774 9.93385L57.6496 10.0093C57.9901 10.0121 58.2932 9.79385 58.3987 9.4701L61.3026 0.558847C61.5131 -0.0869346 62.3902 -0.17506 62.7251 0.415722L67.3459 8.56994C67.5137 8.86619 67.8542 9.01963 68.1873 8.94916Z" fill="#FFC14F"/>
<path d="M58.7925 43.8274L39.0838 47.3025C36.5343 47.7521 34.103 46.0497 33.6535 43.5002L29.6989 21.0732C29.2494 18.5236 30.9518 16.0924 33.5013 15.6429L53.21 12.1677C55.7596 11.7182 58.1908 13.4205 58.6403 15.97L62.5949 38.3971C63.0444 40.9466 61.3421 43.3779 58.7925 43.8274Z" fill="#1380E2"/>
<path d="M58.7932 43.8272L44.8338 46.2886C42.2843 46.7382 39.853 45.0358 39.4035 42.4863L35.4489 20.0594C34.9994 17.5099 36.7018 15.0786 39.2513 14.6291L53.2107 12.1677C55.7602 11.7182 58.1914 13.4205 58.641 15.97L62.5955 38.3971C63.045 40.9464 61.3427 43.3777 58.7932 43.8272Z" fill="#3493F8"/>
<path d="M72.5223 64.6162L21.9378 73.5356C19.2739 74.0053 16.7334 72.2265 16.2637 69.5626L9.68655 32.2605C9.21686 29.5965 10.9956 27.0561 13.6595 26.5864L64.244 17.667C66.9079 17.1973 69.4484 18.9761 69.9181 21.64L70.4853 24.8567C68.9472 27.22 68.3639 30.0792 68.8534 32.8561L71.6589 48.7667C72.1404 51.4976 73.6247 53.9501 75.8206 55.6436L75.9284 55.7267L76.4953 58.942C76.9651 61.6061 75.1864 64.1464 72.5223 64.6162Z" fill="#76B6FA"/>
<path d="M16.3496 34.4L32.9863 31.4665C35.5359 31.017 37.9671 32.7193 38.4166 35.2689L42.232 56.907C42.6815 59.4565 40.9791 61.8878 38.4296 62.3373L21.7929 65.2707L16.3496 34.4Z" fill="#1380E2"/>
<path d="M75.9285 55.7262L37.05 62.5816C34.5005 63.0311 32.0693 61.3287 31.6197 58.7792L27.8044 37.1411C27.3549 34.5916 29.0572 32.1603 31.6068 31.7108L70.4852 24.8555L75.9285 55.7262Z" fill="#3493F8"/>
<path d="M17.5386 46.1273C18.0083 48.7912 16.2295 51.3316 13.5656 51.8013L7.13422 52.9354C4.47031 53.4051 1.92984 51.6263 1.46016 48.9623L0.0059375 40.7152C0.00203125 40.4838 0 40.2518 0 40.0193C0 33.3648 1.625 27.0898 4.49984 21.5694L8.12219 20.9307C10.7861 20.461 13.3266 22.2398 13.7962 24.9038L17.5386 46.1273Z" fill="#1380E2"/>
<path d="M26.5864 69.2347C27.0561 71.8986 25.2773 74.439 22.6134 74.9087C22.6134 74.9087 13.8991 70.6169 11.0187 67.59C4.19094 60.4148 0 50.707 0 40.0203C0 35.5098 0.746563 31.1737 2.12281 27.1289L13.8247 25.0655C16.4886 24.5958 19.0291 26.3745 19.4988 29.0386L26.5864 69.2347Z" fill="#86BEFB"/>
<path d="M26.5872 69.2348C27.0569 71.8987 25.2781 74.4392 22.6142 74.9089L20.9519 75.202C17.2497 73.1931 13.9 70.617 11.0197 67.5901L4.68264 31.6511C4.21295 28.9872 5.9917 26.4467 8.65561 25.977L13.8255 25.0655C16.4894 24.5958 19.0298 26.3745 19.4995 29.0386L26.5872 69.2348Z" fill="#A7D0FC"/>
<path d="M17.5522 57.9953L17.2758 58.044C15.5761 58.3437 13.9553 57.2088 13.6557 55.5092L9.63784 32.7228C9.33815 31.0231 10.473 29.4023 12.1727 29.1026L12.4491 29.0539C14.1488 28.7542 15.7696 29.889 16.0692 31.5887L20.0871 54.3749C20.3867 56.0746 19.2519 57.6956 17.5522 57.9953Z" fill="#C8E2FD"/>
<path d="M66.4539 41.4814C68.098 50.8053 61.8722 59.6966 52.5483 61.3406C43.2244 62.9847 34.3331 56.7589 32.6891 47.435C31.045 38.1111 37.2708 29.2199 46.5947 27.5758C55.9186 25.9317 64.8099 32.1575 66.4539 41.4814Z" fill="#C8E2FD"/>
<path d="M61.102 48.584C59.6338 52.6753 56.0263 55.8664 51.3933 56.5666C44.9952 57.5334 38.8813 53.27 37.5786 46.9317C36.6294 42.3131 38.4044 37.802 41.7719 35.0155C41.9703 34.8512 42.2721 34.9762 42.298 35.2325C42.3347 35.5964 42.3852 35.9615 42.4497 36.3276C43.8644 44.3506 51.5152 49.7078 59.5381 48.2931C59.906 48.2283 60.2681 48.1503 60.6242 48.0598C60.9336 47.9811 61.21 48.2836 61.102 48.584Z" fill="#453D83"/>
<path d="M61.6306 42.3315C62.0177 44.5265 61.7941 46.6879 61.0819 48.6417C59.4897 49.979 57.535 50.9286 55.34 51.3156C48.68 52.49 42.3292 48.0429 41.1549 41.3831C40.7678 39.1881 40.9914 37.0267 41.7036 35.0729C43.2958 33.7356 45.2505 32.7861 47.4455 32.399C54.1055 31.2247 60.4564 35.6715 61.6306 42.3315Z" fill="#5F55AF"/>
<path d="M57.7687 38.9767C59.7907 40.9988 60.4179 43.65 59.1697 44.8983C57.9214 46.1466 55.2701 45.5194 53.2481 43.4973C51.2261 41.4753 50.5989 38.8241 51.8472 37.5758C53.0954 36.3273 55.7467 36.9545 57.7687 38.9767Z" fill="#8078BF"/>
<path d="M66.4541 41.4815C67.0281 44.7372 66.6427 47.94 65.5008 50.8C65.1311 51.7262 64.2272 52.3284 63.23 52.3284C61.5092 52.3284 60.3073 50.5937 60.9466 48.9961C61.8141 46.8275 62.0727 44.3825 61.5484 41.909C60.2308 35.6915 54.2745 31.4815 47.9742 32.3178C47.0923 32.4348 46.2464 32.6419 45.4441 32.9279C43.8406 33.4998 42.1523 32.3315 42.1523 30.6292V30.6289C42.1523 29.5961 42.7992 28.6717 43.7717 28.3234C44.6752 27.9998 45.618 27.7481 46.5948 27.5758C55.9187 25.9319 64.81 32.1576 66.4541 41.4815Z" fill="#E9F3FE"/>
<path d="M36.2076 19.2658C36.4017 20.3647 35.6682 21.4127 34.5693 21.6068C33.4704 21.8008 32.4225 21.0674 32.2284 19.9685C32.0343 18.8696 32.7678 17.8216 33.8667 17.6275C34.9656 17.4335 36.0136 18.1671 36.2076 19.2658ZM40.6326 16.4327C39.5337 16.6268 38.8003 17.6749 38.9943 18.7736C39.1884 19.8725 40.2365 20.606 41.3353 20.4119C42.4342 20.2178 43.1676 19.1697 42.9735 18.071C42.7795 16.9721 41.7314 16.2386 40.6326 16.4327ZM47.3987 15.2378C46.2998 15.4319 45.5664 16.48 45.7604 17.5788C45.9545 18.6777 47.0026 19.4111 48.1014 19.2171C49.2003 19.023 49.9337 17.9749 49.7396 16.8761C49.5456 15.7772 48.4975 15.0438 47.3987 15.2378ZM54.1646 14.0428C53.0657 14.2369 52.3323 15.285 52.5264 16.3838C52.7204 17.4827 53.7686 18.2161 54.8673 18.0221C55.9662 17.828 56.6996 16.7799 56.5056 15.6811C56.3117 14.5822 55.2636 13.8488 54.1646 14.0428Z" fill="#A7D0FC"/>
<path d="M25.6465 18.2891C25.6465 19.5834 24.2474 20.6328 22.5215 20.6328C20.7955 20.6328 19.3965 19.5834 19.3965 18.2891C19.3965 16.9947 20.7955 15.9453 22.5215 15.9453C22.7913 15.9453 23.053 15.9709 23.3027 16.0192V7.74219C23.3027 7.095 23.8274 6.57031 24.4746 6.57031C25.1218 6.57031 25.6465 7.095 25.6465 7.74219V18.2891ZM50.6291 37.5302L49.8899 38.8817C49.8612 38.9342 49.8182 38.9772 49.7657 39.0059L48.4141 39.7452C48.1974 39.8637 48.1974 40.175 48.4141 40.2934L49.7657 41.0326C49.8182 41.0614 49.8613 41.1044 49.8899 41.1569L50.6291 42.5084C50.7477 42.7252 51.059 42.7252 51.1774 42.5084L51.9166 41.1569C51.9454 41.1044 51.9884 41.0614 52.0409 41.0326L53.3924 40.2934C53.6091 40.1748 53.6091 39.8636 53.3924 39.7452L52.0409 39.0059C51.9884 38.9772 51.9454 38.9342 51.9166 38.8817L51.1774 37.5302C51.059 37.3134 50.7477 37.3134 50.6291 37.5302ZM58.8505 16.9812L60.1423 14.6195C60.2609 14.4028 60.5721 14.4028 60.6905 14.6195L61.9823 16.9812C62.011 17.0337 62.054 17.0767 62.1065 17.1055L64.4682 18.3972C64.6849 18.5158 64.6849 18.827 64.4682 18.9455L62.1065 20.2372C62.054 20.2659 62.011 20.3089 61.9823 20.3614L60.6905 22.7231C60.5719 22.9398 60.2607 22.9398 60.1423 22.7231L58.8505 20.3614C58.8218 20.3089 58.7788 20.2659 58.7263 20.2372L56.3646 18.9455C56.1479 18.8269 56.1479 18.5156 56.3646 18.3972L58.7263 17.1055C58.7788 17.0767 58.8219 17.0336 58.8505 16.9812Z" fill="#FFF5F5"/>
</svg>
