<svg width="80" height="81" viewBox="0 0 80 81" fill="none" xmlns="http://www.w3.org/2000/svg">
<g clip-path="url(#clip0_1002_1355)">
<path d="M80 40.0195C80 62.1109 62.0914 80.0195 40 80.0195C17.9086 80.0195 0 62.1109 0 40.0195C0 17.9281 17.9086 0.0195312 40 0.0195312C62.0914 0.0195312 80 17.9281 80 40.0195Z" fill="#FF2EA6"/>
<path d="M71.1837 40.0928C71.1837 57.2822 57.2223 71.217 40 71.217C22.7777 71.217 8.81641 57.2823 8.81641 40.0928C8.81641 22.9033 22.7778 8.96875 40 8.96875C57.2222 8.96875 71.1837 22.9034 71.1837 40.0928Z" fill="#FF50B5"/>
<path d="M17.5137 27.6886C17.5137 28.9806 16.1146 30.0278 14.3887 30.0278C12.6627 30.0278 11.2637 28.9805 11.2637 27.6886C11.2637 26.3967 12.6627 25.3492 14.3887 25.3492C14.6584 25.3492 14.9202 25.375 15.1699 25.423V17.1617C15.1699 16.5158 15.6946 15.9922 16.3418 15.9922C16.989 15.9922 17.5137 16.5159 17.5137 17.1617V27.6886ZM29.2277 59.29L25.7901 52.2978C25.2187 51.1356 23.8116 50.6559 22.6473 51.2262L18.4473 53.2833C17.283 53.8536 16.8023 55.2578 17.3737 56.4198L20.8115 63.412C21.3829 64.5742 22.7899 65.0539 23.9543 64.4836L28.1541 62.4266C29.3184 61.8561 29.799 60.452 29.2277 59.29Z" fill="#FF2EA6"/>
<path d="M80 35.2572V43.0548C80 44.3467 78.9506 45.3941 77.6562 45.3941H49.5312C48.2369 45.3941 47.1875 44.3467 47.1875 43.0548V35.2572C47.1875 33.9653 48.2369 32.918 49.5312 32.918H77.6562C78.9506 32.9178 80 33.9652 80 35.2572Z" fill="#453D83"/>
<path d="M80 35.2573V43.055C80 44.3469 78.9506 45.3942 77.6562 45.3942H67.1875C63.7358 45.3942 60.9375 42.6014 60.9375 39.1561C60.9375 35.7109 63.7358 32.918 67.1875 32.918H77.6562C78.9506 32.918 80 33.9653 80 35.2573Z" fill="#51489A"/>
<path d="M70.3125 35.6482V42.666C70.3125 43.312 70.8372 43.8357 71.4844 43.8357C72.1316 43.8357 72.6562 43.312 72.6562 42.666V35.6482C72.6562 35.0023 72.1316 34.4785 71.4844 34.4785C70.8372 34.4785 70.3125 35.0023 70.3125 35.6482Z" fill="#ABA6D5"/>
<path d="M76.9531 37.4412V42.6655C76.9531 43.3115 76.4284 43.8352 75.7812 43.8352C75.1341 43.8352 74.6094 43.3115 74.6094 42.6655V37.4412C74.6094 36.7952 75.1341 36.2715 75.7812 36.2715C76.4284 36.2715 76.9531 36.7952 76.9531 37.4412Z" fill="#958FCA"/>
<path d="M54.2969 37.5977C53.6497 37.5977 53.125 38.1214 53.125 38.7673V42.6661C53.125 43.312 53.6497 43.8358 54.2969 43.8358C54.9441 43.8358 55.4688 43.312 55.4688 42.6661V38.7673C55.4688 38.1212 54.9441 37.5977 54.2969 37.5977ZM65.625 39.742V42.6661C65.625 43.312 66.1497 43.8358 66.7969 43.8358C67.4441 43.8358 67.9688 43.312 67.9688 42.6661V39.742C67.9688 39.0961 67.4441 38.5723 66.7969 38.5723C66.1497 38.5723 65.625 39.0959 65.625 39.742ZM58.2031 39.1572C57.5559 39.1572 57.0312 39.6809 57.0312 40.3269V42.6661C57.0312 43.312 57.5559 43.8358 58.2031 43.8358C58.8503 43.8358 59.375 43.312 59.375 42.6661V40.3269C59.375 39.6808 58.8503 39.1572 58.2031 39.1572ZM62.1094 41.4964C61.4622 41.4964 60.9375 42.0201 60.9375 42.6661C60.9375 43.312 61.4622 43.8358 62.1094 43.8358C62.7566 43.8358 63.2812 43.312 63.2812 42.6661C63.2812 42.0201 62.7566 41.4964 62.1094 41.4964Z" fill="#8078BF"/>
<path d="M79.6943 18.381L75.7546 23.5232C75.5151 23.8357 75.41 24.2305 75.462 24.6205L76.3192 31.0371C76.4276 31.8493 75.8559 32.5955 75.0421 32.7038L68.6132 33.5593C68.2225 33.6113 67.8684 33.8162 67.6289 34.1287L63.6892 39.2708C63.1904 39.9218 62.2575 40.0458 61.6054 39.5482L56.4534 35.616C56.1403 35.3769 55.7448 35.2719 55.354 35.324L48.9251 36.1794C48.1114 36.2877 47.3637 35.7171 47.2551 34.9049L46.3979 28.4883C46.3459 28.0983 46.1406 27.7449 45.8275 27.5058L40.6754 23.5737C40.0232 23.0758 39.8989 22.1447 40.3976 21.4938L44.3373 16.3516C44.5768 16.0391 44.682 15.6443 44.63 15.2543L43.7728 8.83772C43.6643 8.02553 44.236 7.27928 45.0498 7.171L51.4787 6.31553C51.8695 6.2635 52.2235 6.05866 52.4631 5.74616L56.4028 0.603968C56.9015 -0.0469697 57.8345 -0.171032 58.4865 0.326624L63.6385 4.25881C63.9517 4.49787 64.3471 4.60287 64.7379 4.55084L71.1668 3.69537C71.9806 3.58709 72.7282 4.15772 72.8368 4.96991L73.694 11.3865C73.746 11.7765 73.9514 12.1299 74.2645 12.369L79.4165 16.3012C80.0687 16.799 80.1931 17.7301 79.6943 18.381Z" fill="#FFC14F"/>
<path d="M79.6955 18.3791L75.7559 23.5213C75.5163 23.834 75.411 24.2286 75.4632 24.6186L76.1409 29.6908C75.4749 29.7526 74.8004 29.7843 74.1182 29.7843C62.182 29.7843 52.5059 20.1265 52.5059 8.21302C52.5059 7.2813 52.5651 6.36349 52.6799 5.46286L56.4041 0.602081C56.9029 -0.0488561 57.8359 -0.173075 58.4879 0.324738L63.6399 4.25693C63.953 4.49599 64.3485 4.60099 64.7393 4.54896L71.1682 3.69349C71.982 3.58521 72.7296 4.15583 72.8382 4.96802L73.6954 11.3846C73.7474 11.7746 73.9527 12.128 74.2659 12.3671L79.4179 16.2993C80.0699 16.7971 80.1943 17.7282 79.6955 18.3791Z" fill="#FFCA69"/>
<path d="M65.625 12.2041V14.0256C65.625 14.3041 65.44 14.5489 65.1717 14.6255L57.0312 16.9469V25.3153C57.0312 25.4909 56.9923 25.6575 56.923 25.807C56.5103 27.0906 54.9666 28.0445 53.125 28.0445C50.9677 28.0445 49.2188 26.7353 49.2188 25.1205C49.2188 23.5055 50.9677 22.1964 53.125 22.1964C53.6806 22.1964 54.2091 22.2833 54.6875 22.4397V16.7381C54.6875 16.7111 54.6884 16.6844 54.6903 16.6578C54.7459 15.3558 55.6306 14.2273 56.8956 13.8667L64.8284 11.6045C65.2275 11.4905 65.625 11.7897 65.625 12.2041Z" fill="#FFC7E7"/>
<path d="M65.625 12.2042V24.1457C65.625 25.4376 64.2259 26.485 62.5 26.485C60.7741 26.485 59.375 25.4376 59.375 24.1457C59.375 22.8539 60.7741 21.8065 62.5 21.8065C62.7698 21.8065 63.0316 21.8321 63.2812 21.8803V15.1646L61.2902 15.7324C60.3303 16.0062 59.375 15.2868 59.375 14.2906C59.375 13.621 59.8197 13.0326 60.4647 12.8489L64.8283 11.6045C65.2275 11.4906 65.625 11.7898 65.625 12.2042Z" fill="#FFF5F5"/>
<path d="M36.3161 10.8242L57.8936 54.7109L56.428 55.4287C47.9096 49.518 36.8499 48.6814 27.5361 53.2431L26.5038 53.7488C25.6943 54.1452 24.7161 53.8117 24.3188 53.0037L17.1263 38.3748C16.7291 37.5669 17.0633 36.5906 17.8727 36.1941L18.905 35.6884C28.2188 31.1267 34.3225 21.8836 34.8503 11.542L36.3161 10.8242Z" fill="#55A4F9"/>
<path d="M54.949 48.6499L57.8934 54.6385L56.4277 55.3565C47.9092 49.4457 36.8496 48.6091 27.5359 53.1708L26.5035 53.6766C25.694 54.073 24.7159 53.7394 24.3185 52.9316L22.5773 49.3901C22.6307 49.3693 22.6837 49.3462 22.7362 49.3205L24.0092 48.6971C33.8504 43.8768 45.2726 43.9451 54.949 48.6499ZM30.6049 75.1846L25.6034 65.1504C24.809 63.5346 22.8524 62.8674 21.2335 63.6602L18.3021 65.096C16.6832 65.889 16.0148 67.8416 16.8093 69.4576L18.9465 74.0371C21.7638 75.7846 24.8143 77.1918 28.0404 78.2013C29.8485 78.7671 31.4501 76.8802 30.6049 75.1846Z" fill="#3493F8"/>
<path d="M24.6249 67.629L19.014 70.3771C17.4646 71.136 15.5923 70.4976 14.8319 68.9512L10.7018 60.551C10.624 60.3927 10.5609 60.2312 10.5118 60.0676C6.66132 60.5362 2.76617 58.5707 0.960853 54.899C-1.32008 50.2598 0.598822 44.6534 5.2471 42.3767L13.8171 38.1792C15.2815 37.4618 17.0513 38.0652 17.7699 39.527L23.3521 50.8807C24.1124 52.4271 23.4727 54.2959 21.9234 55.0548L26.0534 63.4551C26.8138 65.0013 26.1743 66.8702 24.6249 67.629Z" fill="#5F55AF"/>
<path d="M21.9324 68.9495L19.014 70.3788C17.4646 71.1377 15.5923 70.4993 14.8319 68.9529L10.7018 60.5527C10.624 60.3945 10.5609 60.2329 10.5118 60.0693C6.66132 60.5379 2.76617 58.5724 0.960853 54.9007C-1.32008 50.2615 0.598822 44.6551 5.2471 42.3784L6.80507 41.6152C4.23507 44.5135 3.52242 48.7854 5.33663 52.4754C7.23492 56.3365 11.3309 58.4032 15.3798 57.9104C15.4313 58.0823 15.4977 58.2523 15.5794 58.4187L19.9224 67.2516C20.3426 68.1062 21.0855 68.697 21.9324 68.9495Z" fill="#51489A"/>
<path d="M59.9375 57.9443L59.9292 57.9484C58.7694 58.5165 57.3678 58.0385 56.7988 56.881L50.2007 43.4614C49.6316 42.3039 50.1103 40.9051 51.27 40.3371L51.2783 40.3331C52.4382 39.765 53.8397 40.2429 54.4088 41.4004L61.0067 54.8201C61.576 55.9776 61.0972 57.3764 59.9375 57.9443Z" fill="#E9F3FE"/>
<path d="M54.4308 46.7448L54.4225 46.7489C53.2627 47.317 51.8611 46.839 51.292 45.6815L34.0792 10.6723C33.5102 9.5148 33.9889 8.11605 35.1486 7.54808L35.157 7.54402C36.3169 6.97589 37.7184 7.45386 38.2875 8.61136L55.5003 43.6204C56.0694 44.7779 55.5906 46.1768 54.4308 46.7448ZM17.8722 36.1945L13.6641 38.2554L22.2477 55.7148L26.4558 53.6539L17.8722 36.1945Z" fill="#FFF5F5"/>
<path d="M17.005 59.202L9.98597 62.6398C9.21285 63.0186 8.27832 62.7 7.89894 61.9283L7.89613 61.9227C7.51675 61.1511 7.83597 60.2184 8.6091 59.8398L15.6282 56.402C16.4013 56.0233 17.3357 56.3419 17.7152 57.1136L17.718 57.1192C18.0974 57.8908 17.7782 58.8234 17.005 59.202ZM44.1135 55.3789C43.4663 55.3789 42.9416 55.9027 42.9416 56.5486V64.8098C42.6919 64.7617 42.43 64.7361 42.1603 64.7361C40.4344 64.7361 39.0353 65.7834 39.0353 67.0753C39.0353 68.3673 40.4344 69.4147 42.1603 69.4147C43.8861 69.4147 45.2853 68.3673 45.2853 67.0753C45.2853 67.003 45.2853 56.5486 45.2853 56.5486C45.2853 55.9027 44.7607 55.3789 44.1135 55.3789ZM20.4686 62.7137C20.0893 61.942 19.1547 61.6234 18.3816 62.0022L11.3625 65.44C10.5894 65.8186 10.2702 66.7513 10.6496 67.5228L10.6524 67.5284C11.0318 68.3002 11.9661 68.6187 12.7394 68.24L19.7585 64.8022C20.5316 64.4236 20.8508 63.4909 20.4714 62.7194L20.4686 62.7137Z" fill="#453D83"/>
</g>
<defs>
<clipPath id="clip0_1002_1355">
<rect width="80" height="80" fill="white" transform="translate(0 0.0195312)"/>
</clipPath>
</defs>
</svg>
