<svg width="80" height="81" viewBox="0 0 80 81" fill="none" xmlns="http://www.w3.org/2000/svg">
<path d="M80 40.0195C80 62.1109 62.0914 80.0195 40 80.0195C17.9086 80.0195 0 62.1109 0 40.0195C0 17.9281 17.9086 0.0195312 40 0.0195312C62.0914 0.0195312 80 17.9281 80 40.0195Z" fill="#6100C1"/>
<path d="M74.6565 42.3059C74.6565 60.3281 60.0466 74.9377 42.0246 74.9377C24.0026 74.9377 9.39258 60.3279 9.39258 42.3059C9.39258 24.2838 24.0024 9.67383 42.0245 9.67383C60.0465 9.67383 74.6565 24.2837 74.6565 42.3059Z" fill="#4F0698"/>
<path d="M0.198437 44.0287H79.8016C79.7195 44.8526 79.6126 45.6692 79.4814 46.4776H0.51875C0.3875 45.6692 0.280469 44.8526 0.198437 44.0287ZM3.56312 56.5457H76.437C76.8016 55.7432 77.1405 54.9265 77.4525 54.0968H2.54766C2.85969 54.9265 3.19844 55.7432 3.56312 56.5457ZM1.67562 51.5117H78.3244C78.5656 50.7057 78.7823 49.8892 78.9734 49.0628H1.02656C1.21766 49.8892 1.43437 50.7057 1.67562 51.5117ZM79.9872 38.9946H0.0128125C0.004375 39.3351 0 39.6765 0 40.019C0 40.4959 0.0084375 40.9707 0.0248437 41.4437H79.975C79.9916 40.9707 79.9998 40.4959 79.9998 40.019C80 39.6765 79.9956 39.3351 79.9872 38.9946ZM76.6161 23.8926H3.38391C3.02984 24.6954 2.70141 25.5121 2.39953 26.3415H77.6005C77.2986 25.5121 76.9703 24.6954 76.6161 23.8926ZM78.442 28.9266H1.55797C1.32578 29.7329 1.11828 30.5495 0.93625 31.3756H79.0636C78.8817 30.5495 78.6742 29.7327 78.442 28.9266ZM79.5441 33.9607H0.455937C0.332969 34.7693 0.234375 35.5859 0.160625 36.4096H79.8392C79.7656 35.5859 79.667 34.7693 79.5441 33.9607Z" fill="#8078BF"/>
<path d="M37.0006 24.4223V28.267C37.0006 28.855 36.6109 29.3716 36.0456 29.5331L25.6412 32.5539L18.8961 34.4331V63.0267C18.8961 63.0267 18.8142 64.9984 18.6677 65.314C17.798 68.0231 14.5458 70.0362 10.6667 70.0362C6.12187 70.0362 2.4375 67.2729 2.4375 63.8642C2.4375 60.4556 6.12187 57.6923 10.6667 57.6923C11.837 57.6923 12.9505 57.8756 13.9584 58.2059V33.992C13.9584 33.9331 13.9606 33.8745 13.9647 33.8166C14.0844 31.0706 15.9473 28.6919 18.6102 27.9311L35.282 23.2158C36.1233 22.9755 37.0006 23.5475 37.0006 24.4223ZM63.2597 13.9922C62.1502 13.9922 61.2508 14.8916 61.2508 16.0011V35.7048C60.4305 35.4361 59.5245 35.2869 58.5722 35.2869C54.8739 35.2869 51.8758 37.5355 51.8758 40.3092C51.8758 43.0828 54.8739 45.3314 58.5722 45.3314C61.7286 45.3314 64.3747 43.6936 65.0826 41.4892C65.202 41.2322 65.2687 40.9458 65.2687 40.6439V16.0011C65.2686 14.8916 64.3692 13.9922 63.2597 13.9922Z" fill="#FF9F22"/>
<path d="M46.8741 21.6496V57.5285C46.8741 60.2556 43.9266 62.4662 40.2906 62.4662C36.6547 62.4662 33.7072 60.2556 33.7072 57.5285C33.7072 54.8015 36.6547 52.5909 40.2906 52.5909C40.8589 52.5909 41.4105 52.645 41.9364 52.7465V27.8982L25.5105 32.5914C24.6694 32.8317 23.832 32.2001 23.832 31.3253C23.832 28.4617 25.7303 25.945 28.4837 25.1584L43.2852 20.9295C43.5612 20.7887 43.8675 20.6982 44.1916 20.6704L45.1956 20.3835C46.0367 20.1434 46.8741 20.775 46.8741 21.6496ZM78.6333 7.18448L65.0342 11.07C62.8675 11.689 61.3514 13.6248 61.2541 15.859C61.2508 15.9062 61.2491 15.9537 61.2491 16.0018V29.1218C61.2491 30.2314 62.1484 31.1307 63.258 31.1307C64.3675 31.1307 65.2669 30.2314 65.2669 29.1218V16.3606L79.2219 12.3734C79.6819 12.242 79.9989 11.8215 79.9989 11.3432V8.21464C79.9991 7.50276 79.3176 6.98886 78.6333 7.18448Z" fill="#FFC14F"/>
<path d="M44.4063 39.3482C43.0428 39.3482 41.9375 38.2429 41.9375 36.8795V27.442C41.9375 26.0785 43.0428 24.9732 44.4063 24.9732C45.7697 24.9732 46.875 26.0785 46.875 27.442V36.8795C46.875 38.2429 45.7697 39.3482 44.4063 39.3482ZM63.2589 23.4579C64.3684 23.4579 65.2678 22.5585 65.2678 21.449V16.2218C65.2678 15.1123 64.3684 14.2129 63.2589 14.2129C62.1494 14.2129 61.25 15.1123 61.25 16.2218V21.449C61.25 22.5585 62.1494 23.4579 63.2589 23.4579Z" fill="#FFE1AA"/>
<path d="M50.4082 13.02L51.1475 14.3715C51.1762 14.424 51.2192 14.467 51.2717 14.4957L52.6232 15.235C52.84 15.3536 52.84 15.6648 52.6232 15.7832L51.2717 16.5225C51.2192 16.5512 51.1761 16.5942 51.1475 16.6467L50.4082 17.9982C50.2896 18.215 49.9784 18.215 49.86 17.9982L49.1207 16.6467C49.092 16.5942 49.049 16.5512 48.9965 16.5225L47.645 15.7832C47.4282 15.6646 47.4282 15.3534 47.645 15.235L48.9965 14.4957C49.049 14.467 49.092 14.424 49.1207 14.3715L49.86 13.02C49.9784 12.8032 50.2898 12.8032 50.4082 13.02Z" fill="#FF9F22"/>
<path d="M65.7639 47.6645L66.5031 49.016C66.5318 49.0685 66.5748 49.1117 66.6273 49.1403L67.9789 49.8795C68.1956 49.9981 68.1956 50.3093 67.9789 50.4278L66.6273 51.167C66.5748 51.1957 66.5317 51.2387 66.5031 51.2912L65.7639 52.6428C65.6453 52.8595 65.334 52.8595 65.2156 52.6428L64.4764 51.2912C64.4476 51.2387 64.4047 51.1957 64.3522 51.167L63.0006 50.4278C62.7839 50.3092 62.7839 49.9979 63.0006 49.8795L64.3522 49.1403C64.4047 49.1115 64.4476 49.0685 64.4764 49.016L65.2156 47.6645C65.334 47.4478 65.6454 47.4478 65.7639 47.6645ZM18.4871 42.3379L16.1254 43.6296C15.9087 43.7482 15.9087 44.0595 16.1254 44.1779L18.4871 45.4696C18.5396 45.4984 18.5826 45.5414 18.6114 45.5939L19.9031 47.9556C20.0217 48.1723 20.3329 48.1723 20.4514 47.9556L21.7431 45.5939C21.7718 45.5414 21.8148 45.4982 21.8673 45.4696L24.229 44.1779C24.4457 44.0593 24.4457 43.7481 24.229 43.6296L21.8673 42.3379C21.8148 42.3092 21.7718 42.2662 21.7431 42.2137L20.4514 39.852C20.3328 39.6353 20.0215 39.6353 19.9031 39.852L18.6114 42.2137C18.5828 42.2662 18.5396 42.3093 18.4871 42.3379Z" fill="#FFF5F5"/>
</svg>
