<svg width="80" height="81" viewBox="0 0 80 81" fill="none" xmlns="http://www.w3.org/2000/svg">
<g clip-path="url(#clip0_1002_1325)">
<path d="M9.84594 64.2343C9.29828 64.721 8.45344 64.6262 8.01297 64.0405C2.98187 57.3516 0 49.0338 0 40.0196C0 17.9545 17.8662 0.0619495 39.9216 0.0196057C61.9075 -0.0225818 79.9103 17.8676 79.9997 39.8534C80.0448 50.9709 75.5542 61.0398 68.2725 68.3155C67.8873 68.7004 67.2556 68.6701 66.9031 68.2552C59.5661 59.6205 48.6269 54.142 36.4083 54.142C26.2137 54.1421 16.91 57.9557 9.84594 64.2343Z" fill="#FFC14F"/>
<path d="M49.6328 8.39648C64.3028 8.39648 76.1953 20.289 76.1953 34.959C76.1953 49.629 64.3028 61.5215 49.6328 61.5215C34.9628 61.5215 23.0703 49.629 23.0703 34.959C23.0703 20.289 34.9628 8.39648 49.6328 8.39648Z" fill="#FFCD71"/>
<path d="M8 64.0234V31.6083C8 18.8516 18.0289 8.29328 30.7747 7.76563C32.1511 7.70859 33.5397 7.67969 34.9388 7.67969C36.3378 7.67969 37.7264 7.70875 39.1028 7.76563C51.8486 8.29328 61.8775 18.8516 61.8775 31.6083V62.8077C57.3848 59.9442 51.8375 58.1655 45.7792 57.9567C44.1252 57.8997 42.4567 57.8706 40.7755 57.8706C39.0942 57.8706 37.4258 57.8997 35.7717 57.9567C26.3198 58.2825 18.1117 62.4292 13.2125 68.5555C12.9203 68.9209 12.3787 68.9556 12.0441 68.6286C10.5825 67.2 9.22984 65.6605 8 64.0234Z" fill="#51489A"/>
<path d="M13.0276 30.2784C10.2243 30.2784 8.16896 27.5941 8.95381 24.9028C11.7437 15.3377 20.3504 8.19734 30.7741 7.76578C32.1505 7.70875 33.5391 7.67969 34.9382 7.67969C36.3372 7.67969 37.7258 7.70875 39.1022 7.76578C49.5262 8.19734 58.1327 15.3377 60.9226 24.9028C61.7076 27.5941 59.6522 30.2784 56.8488 30.2784C55.468 30.2784 54.1793 29.6014 53.3835 28.473C52.5521 27.2941 51.5699 26.1842 50.4458 25.1627C46.3922 21.4789 40.9277 19.3344 35.0599 19.1237L34.938 19.1195L34.8174 19.1237C28.9485 19.3344 23.4838 21.4789 19.4302 25.1627C18.3062 26.1842 17.324 27.2941 16.4926 28.473C15.6972 29.6012 14.4083 30.2784 13.0276 30.2784Z" fill="#5F55AF"/>
<path d="M23.4375 15.6445C22.5745 15.6445 21.875 14.945 21.875 14.082V10.1156C21.875 4.96637 25.7491 0.712617 30.8866 0.221211C33.6934 -0.0476953 36.6191 -0.0476953 39.4261 0.221211C44.5634 0.712617 48.4375 4.96637 48.4375 10.1156V14.082C48.4375 14.945 47.738 15.6445 46.875 15.6445C46.012 15.6445 45.3125 14.945 45.3125 14.082V10.1156C45.3125 6.58559 42.6539 3.66918 39.1284 3.33184C36.5183 3.08215 33.7942 3.08215 31.1842 3.33184C27.6586 3.66918 25 6.58559 25 10.1156V14.082C25 14.945 24.3005 15.6445 23.4375 15.6445Z" fill="#453D83"/>
<path d="M56.6532 38.5599V68.662C56.6532 73.7457 53.1035 78.1666 48.1246 79.1938C45.5012 79.7352 42.7838 80.0196 40.0001 80.0196C29.7027 80.0196 20.3141 76.1285 13.2246 69.7365V38.5599C13.2246 33.5574 15.4288 28.7995 19.4312 25.1623C23.4848 21.4785 28.9493 19.334 34.8184 19.1234L34.939 19.1191L35.0609 19.1234C40.9287 19.334 46.3932 21.4785 50.4468 25.1623C54.449 28.7995 56.6532 33.5574 56.6532 38.5599Z" fill="#FF50B5"/>
<path d="M25.218 43.0513C23.5485 42.7573 21.2605 40.2429 20.4794 38.3571C20.4665 38.3255 20.4534 38.2929 20.4407 38.2604C20.0496 37.2571 20.3209 36.529 20.6174 36.0952C21.0893 35.4051 21.9554 34.959 22.824 34.959C23.3332 34.959 24.0541 35.1126 24.5977 35.8438C24.7518 36.0512 24.9948 36.1732 25.2529 36.1732C25.5112 36.1732 25.7541 36.051 25.908 35.8438C26.4515 35.1124 27.1726 34.959 27.6818 34.959C28.5504 34.959 29.4165 35.4051 29.8882 36.0954C30.1846 36.5293 30.456 37.2571 30.0646 38.261C30.052 38.2934 30.0393 38.3251 30.0262 38.3568C29.2451 40.2427 26.9571 42.7573 25.2874 43.0513C25.2759 43.0532 25.2643 43.0557 25.2527 43.0582C25.2412 43.0557 25.2296 43.0532 25.218 43.0513Z" fill="#D12898"/>
<path d="M27.68 34.1426C26.7772 34.1426 25.8797 34.5109 25.2511 35.3568C24.6227 34.511 23.7249 34.1426 22.8222 34.1426H22.8219C22.8196 34.1426 22.8171 34.1426 22.8147 34.1427C22.8133 34.1426 22.8119 34.1426 22.8105 34.1426C22.8052 34.1426 22.8 34.1427 22.7947 34.1427C20.7546 34.1593 18.7016 36.051 19.6786 38.5576C19.6932 38.5949 19.7082 38.6323 19.7236 38.6695C20.5436 40.6493 23.0175 43.493 25.0749 43.8552C25.0855 43.8674 25.0963 43.8795 25.1071 43.8913C25.1547 43.8891 25.2028 43.8854 25.2511 43.8802C25.2994 43.8854 25.3474 43.8891 25.3952 43.8913C25.406 43.8795 25.4168 43.8674 25.4274 43.8552C27.4847 43.493 29.9585 40.6493 30.7786 38.6695C30.7941 38.6323 30.8091 38.5949 30.8236 38.5576C31.8049 36.0401 29.7289 34.1426 27.68 34.1426ZM29.3021 37.9651C29.2916 37.9918 29.281 38.0184 29.27 38.0446C28.5508 39.781 26.4921 41.9065 25.251 42.224C24.0099 41.9065 21.9511 39.781 21.2321 38.0449C21.2211 38.0184 21.2103 37.9918 21.1997 37.9646C20.9863 37.4171 21.0157 36.9562 21.2896 36.5555C21.6086 36.0888 22.2243 35.7751 22.8216 35.7752V35.7751H22.8219V35.7752C23.2903 35.7752 23.6668 35.9621 23.9405 36.3305C24.2485 36.7452 24.7346 36.9895 25.251 36.9895C25.7674 36.9895 26.2535 36.7451 26.5614 36.3305C26.8352 35.9621 27.2116 35.7752 27.6799 35.7752C28.2774 35.7752 28.8932 36.089 29.2124 36.556C29.4863 36.9565 29.5157 37.4173 29.3021 37.9651Z" fill="#FFC7E7"/>
<path d="M57.8773 38.5606V75.8127C57.0759 76.2136 56.2592 76.5886 55.4284 76.9363V38.5606C55.4284 33.9075 53.3667 29.4713 49.623 26.0692C45.7833 22.58 40.5955 20.548 35.0155 20.3478L34.9387 20.3452L34.8598 20.3478C29.2819 20.548 24.0941 22.5798 20.2544 26.0691C16.5106 29.4711 14.4489 33.9073 14.4489 38.5605V70.7972C13.6023 70.0936 12.7853 69.3558 12 68.5858V38.5606C12 27.5067 22.0286 18.3577 34.7742 17.9003C34.8291 17.8984 34.8839 17.8966 34.9387 17.8945C34.9936 17.8964 35.0484 17.8983 35.1033 17.9003C47.8487 18.3577 57.8773 27.5067 57.8773 38.5606Z" fill="#453D83"/>
<path d="M25.9364 71.6931H21.5742C19.8483 71.6931 18.4492 70.2941 18.4492 68.5681V51.9609C18.4492 50.235 19.8483 48.8359 21.5742 48.8359H25.9364C27.6623 48.8359 29.0614 50.235 29.0614 51.9609V68.5681C29.0614 70.2941 27.6623 71.6931 25.9364 71.6931Z" fill="#5F55AF"/>
<path d="M48.3041 71.6931H25.1914C23.4655 71.6931 22.0664 70.2941 22.0664 68.5681V51.9609C22.0664 50.235 23.4655 48.8359 25.1914 48.8359H48.3041C50.03 48.8359 51.429 50.235 51.429 51.9609V68.5681C51.429 70.2941 50.03 71.6931 48.3041 71.6931Z" fill="#6A61B4"/>
<path d="M25.6422 54.3509L28.2847 48.6263C28.8659 47.3671 30.3758 46.8415 31.6134 47.4673L43.9181 53.6896L27.1176 56.3062C26.0217 56.477 25.1773 55.3581 25.6422 54.3509Z" fill="#C8E2FD"/>
<path d="M27.5918 54.9589L32.6731 47.6542C33.4649 46.5158 35.0434 46.2614 36.1529 47.0934L47.1837 55.3666L27.5918 54.9589Z" fill="#FFF5F5"/>
<path d="M51.0731 56.5915H18.8047C18.1575 56.5915 17.6328 56.0668 17.6328 55.4196V55.3145C17.6328 54.6673 18.1575 54.1426 18.8047 54.1426H51.0731C51.7203 54.1426 52.245 54.6673 52.245 55.3145V55.4196C52.245 56.0668 51.7203 56.5915 51.0731 56.5915Z" fill="#453D83"/>
<path d="M36.8515 36.4509C36.6821 36.4509 36.5138 36.3982 36.3715 36.2949C36.1202 36.1124 35.9943 35.8027 36.0468 35.4965L36.5102 32.7948L34.5473 30.8813C34.3249 30.6645 34.2446 30.3401 34.3409 30.0446C34.4368 29.749 34.6923 29.5338 34.9998 29.489L37.7124 29.0948L38.9255 26.6366C39.063 26.3579 39.3468 26.1816 39.6576 26.1816C39.9684 26.1816 40.2521 26.358 40.3896 26.6366L41.6029 29.0948L44.3155 29.489C44.623 29.5338 44.8785 29.749 44.9744 30.0446C45.0705 30.3401 44.9904 30.6645 44.768 30.8813L42.8051 32.7948L43.2684 35.4966C43.321 35.8027 43.1951 36.1124 42.9435 36.2949C42.8013 36.3982 42.6329 36.4509 42.4637 36.4509C42.3338 36.4509 42.2035 36.4199 42.084 36.3571L39.6574 35.0815L37.2309 36.3571C37.1116 36.4199 36.9813 36.4509 36.8515 36.4509Z" fill="#FFC14F"/>
<path d="M45.7512 29.7923C45.5592 29.2012 45.0482 28.7704 44.4332 28.681L42.1451 28.3485L41.1218 26.2752C40.8468 25.718 40.2792 25.3652 39.6578 25.3652C39.0364 25.3652 38.4687 25.718 38.1937 26.2752L37.1704 28.3485L34.8823 28.681C34.2673 28.7704 33.7564 29.2012 33.5643 29.7923C33.3723 30.3834 33.5324 31.0321 33.9775 31.4659L35.6331 33.0798L35.2421 35.3587C35.1371 35.9712 35.3889 36.5902 35.8917 36.9554C36.176 37.162 36.5129 37.2673 36.8515 37.2673C37.1114 37.2673 37.3721 37.2052 37.611 37.0796L39.6576 36.0037L41.7042 37.0796C41.9431 37.2052 42.2039 37.2673 42.4637 37.2673C42.8023 37.2673 43.139 37.1621 43.4236 36.9554C43.9264 36.5901 44.1781 35.9712 44.0731 35.3587L43.6821 33.0798L45.3378 31.4659C45.7831 31.0321 45.9432 30.3834 45.7512 29.7923ZM41.9281 32.5098L42.464 35.6346L39.6578 34.1593L36.8515 35.6346L37.3875 32.5098L35.1171 30.2968L38.2546 29.8409L39.6578 26.9979L41.0609 29.8409L44.1984 30.2968L41.9281 32.5098Z" fill="#FFE7C0"/>
<path d="M52.2688 78.1029C52.2064 78.1229 52.1441 78.1429 52.0816 78.1626C50.5519 78.6466 48.9825 79.0412 47.3795 79.3402C47.2528 78.9918 47.1836 78.6159 47.1836 78.2237V65.1629L48.8163 63.0949V44.3729L47.1836 42.3059V40.6727C47.1836 37.066 50.1075 34.1421 53.7142 34.1421V29.2441H61.8775V34.1421C65.4844 34.1421 61.9072 75.0002 52.2688 78.1029Z" fill="#55A4F9"/>
<path d="M63.5105 28.4274V31.6927C63.5105 32.1435 63.145 32.509 62.6942 32.509H52.8983C52.4475 32.509 52.082 32.1435 52.082 31.6927V28.4274C52.082 27.0749 53.1784 25.9785 54.5309 25.9785H61.0616C62.4141 25.9785 63.5105 27.0749 63.5105 28.4274Z" fill="#1380E2"/>
<path d="M62.6937 32.509H56.8162C56.3655 32.509 56 32.1435 56 31.6927V28.4274C56 27.0749 57.0964 25.9785 58.4489 25.9785H61.0611C62.4136 25.9785 63.51 27.0749 63.51 28.4274V31.6927C63.51 32.1434 63.1445 32.509 62.6937 32.509Z" fill="#3493F8"/>
<path d="M52.082 78.163V40.6732C52.082 37.0665 55.0059 34.1426 58.6127 34.1426H61.878C65.4847 34.1426 68.4086 37.0665 68.4086 40.6732V42.3065L66.8303 43.6921V63.2299L68.4086 65.1629V68.1799C63.908 72.7201 58.3264 76.187 52.082 78.163Z" fill="#86BEFB"/>
<path d="M65.787 56.3384H51.957C51.4392 56.3384 51.0195 55.9188 51.0195 55.4009V43.2422C51.0195 42.7244 51.4392 42.3047 51.957 42.3047H68.4073V53.7181C68.4073 55.1653 67.2342 56.3384 65.787 56.3384Z" fill="#FFF5F5"/>
<path d="M68.408 53.4418V65.1637H51.9998C51.4589 65.1637 51.0203 64.7251 51.0203 64.1841V56.3402H47.1836V42.3066H52.0816V54.4443C53.7459 54.4016 55.3947 53.9652 56.8858 53.1473C59.4772 51.7257 62.5459 51.4562 65.3455 52.4045L68.408 53.4418Z" fill="#C8E2FD"/>
<path d="M52.0816 54.4434V65.163H47.1836V53.4609L48.3716 53.8706C49.577 54.2861 50.8337 54.4753 52.0816 54.4434Z" fill="#A7D0FC"/>
<path d="M70.3125 19.5508C70.3125 20.8452 68.9134 21.8945 67.1875 21.8945C65.4616 21.8945 64.0625 20.8452 64.0625 19.5508C64.0625 18.2564 65.4616 17.207 67.1875 17.207C67.4573 17.207 67.7191 17.2327 67.9688 17.2809V9.00391C67.9688 8.35672 68.4934 7.83203 69.1406 7.83203C69.7878 7.83203 70.3125 8.35672 70.3125 9.00391V19.5508Z" fill="#453D83"/>
</g>
<defs>
<clipPath id="clip0_1002_1325">
<rect width="80" height="80" fill="white" transform="translate(0 0.0195312)"/>
</clipPath>
</defs>
</svg>
