<svg width="89" height="88" viewBox="0 0 89 88" fill="none" xmlns="http://www.w3.org/2000/svg">
<path d="M88.5 44C88.5 68.3005 68.8005 88 44.5 88C20.1995 88 0.5 68.3005 0.5 44C0.5 19.6995 20.1995 0 44.5 0C68.8005 0 88.5 19.6995 88.5 44Z" fill="#B2D93A"/>
<path d="M83.3438 41.6797C83.3438 58.1726 69.9734 71.543 53.4805 71.543C36.9875 71.543 23.6172 58.1726 23.6172 41.6797C23.6172 25.1867 36.9875 11.8164 53.4805 11.8164C69.9734 11.8164 83.3438 25.1867 83.3438 41.6797Z" fill="#A3C92C"/>
<path d="M38.24 61V27.04H30.98L16.1 33.46L20.36 42.22L27.32 39.22V61H38.24ZM55.3072 50.2C55.5472 49.6 55.9872 49.02 56.6272 48.46C57.2672 47.9 58.0472 47.62 58.9672 47.62C60.0872 47.62 61.0072 48 61.7272 48.76C62.4472 49.48 62.8072 50.48 62.8072 51.76C62.8072 53.2 62.3072 54.34 61.3072 55.18C60.3072 56.02 59.0672 56.44 57.5872 56.44C56.1072 56.44 54.6672 56.2 53.2672 55.72C51.9072 55.2 50.3272 54.44 48.5272 53.44L43.0672 61.18C44.4272 62.1 45.9272 62.9 47.5672 63.58C49.2472 64.3 50.9472 64.84 52.6672 65.2C54.3872 65.56 55.9672 65.74 57.4072 65.74C60.5672 65.74 63.2672 65.14 65.5072 63.94C67.7872 62.74 69.5472 61.1 70.7872 59.02C72.0272 56.9 72.6472 54.48 72.6472 51.76C72.6472 49.4 72.1672 47.22 71.2072 45.22C70.2472 43.22 68.8472 41.62 67.0072 40.42C65.1672 39.18 62.8872 38.56 60.1672 38.56C59.3272 38.56 58.6072 38.66 58.0072 38.86C57.4472 39.02 56.9272 39.24 56.4472 39.52V35.62H69.8272L70.9072 27.04H47.2672L46.1272 50.2H55.3072Z" fill="white"/>
</svg>
