<svg width="51" height="50" viewBox="0 0 51 50" fill="none" xmlns="http://www.w3.org/2000/svg">
<g clip-path="url(#clip0_1002_1003)">
<path d="M50.5586 25C50.5586 38.1939 40.3377 49.0008 27.3817 49.9346C27.2814 49.9418 27.0962 49.6453 26.9956 49.6514C26.4922 49.6816 24.4726 49.6821 23.9776 49.6529C23.8614 49.6461 23.8304 49.9415 23.7146 49.933C10.7686 48.9892 0.558594 38.1869 0.558594 25C0.558594 11.1929 11.7515 0 25.5586 0C39.3657 0 50.5586 11.1929 50.5586 25Z" fill="#24D3B5"/>
<path d="M38.6345 13.0352H12.4624C10.9151 13.0352 9.65625 14.294 9.65625 15.8413V36.5128C9.65625 38.0601 10.915 39.3189 12.4624 39.3189H14.0771C14.0808 39.319 14.0844 39.319 14.0881 39.319C14.0903 39.319 14.0926 39.3189 14.0949 39.3189H24.7832V44.0543C24.7832 44.4771 25.1259 44.8196 25.5485 44.8196C25.9713 44.8196 26.3139 44.4771 26.3139 44.0543V39.3189H37.0022C37.0045 39.3189 37.0067 39.319 37.0091 39.319C37.0127 39.319 37.0163 39.3189 37.0199 39.3189H38.6346C40.1818 39.3189 41.4407 38.0601 41.4407 36.5128V15.8412C41.4406 14.294 40.1817 13.0352 38.6345 13.0352ZM15.5657 37.7882L24.7831 24.7301V37.7882H15.5657ZM26.3138 24.7302L35.5312 37.7882H26.3138V24.7302ZM39.91 36.5127C39.91 37.216 39.3378 37.7882 38.6345 37.7882H37.4047L26.632 22.527C26.4354 22.2483 24.6615 22.2483 24.4648 22.527L13.6921 37.7882H12.4623C11.759 37.7882 11.1868 37.216 11.1868 36.5127V15.8412C11.1868 15.1379 11.759 14.5657 12.4623 14.5657H38.6344C39.3377 14.5657 39.9099 15.1379 39.9099 15.8412V36.5127H39.91Z" fill="#453D83"/>
<path d="M31.9658 37.9638V38.6732C31.9658 39.2368 31.509 39.6937 30.9454 39.6937H20.1513C19.5877 39.6937 19.1309 39.2368 19.1309 38.6732V37.9638C19.1309 37.4002 19.5877 36.9434 20.1513 36.9434H30.9454C31.5089 36.9434 31.9658 37.4002 31.9658 37.9638ZM25.8513 42.2209H25.2454C24.4001 42.2209 23.7148 42.9062 23.7148 43.7515V49.9328C24.3236 49.9772 24.9386 49.9998 25.5587 49.9998C26.1719 49.9998 26.7798 49.9776 27.3819 49.9344V43.7516C27.3819 42.9062 26.6966 42.2209 25.8513 42.2209Z" fill="#6A61B4"/>
<path d="M45.2706 12.0522V34.5383C45.2706 34.9316 44.8308 35.1611 44.5056 34.94C41.8274 33.1196 38.7027 32.0748 35.3656 32.0748C31.7054 32.0748 28.3007 33.3317 25.4606 35.4903C24.2056 33.8652 23.6138 31.8244 23.8047 29.7799L25.4606 12.0522C28.3007 9.89365 31.7055 8.63672 35.3656 8.63672C39.0258 8.63672 42.4306 9.89355 45.2706 12.0522Z" fill="#51489A"/>
<path d="M25.4604 12.0522V35.4902C22.6203 33.3316 19.2155 32.0747 15.5554 32.0747C12.2182 32.0747 9.09346 33.1195 6.41543 34.9399C6.09014 35.161 5.65039 34.9315 5.65039 34.5382V12.0522C8.49053 9.89365 11.8952 8.63672 15.5554 8.63672C19.2155 8.63672 22.6203 9.89355 25.4604 12.0522Z" fill="#453D83"/>
<path d="M46.9568 9.52295V32.0499C46.9568 32.435 46.5326 32.6675 46.2073 32.4615C43.2835 30.6098 39.8636 29.5455 36.2089 29.5455C32.2371 29.5455 28.5427 30.8024 25.4609 32.961L24.3877 29.4132C24.3223 29.1969 24.2891 28.9722 24.2891 28.7462V11.5294C24.2891 10.6981 24.7369 9.93135 25.4609 9.52295C28.5427 7.36436 32.2372 6.10742 36.2089 6.10742C40.1806 6.10742 43.875 7.36436 46.9568 9.52295Z" fill="#FF2EA6"/>
<path d="M25.4607 9.52295V32.9609C22.379 30.8023 18.6845 29.5454 14.7128 29.5454C11.0581 29.5454 7.63818 30.6097 4.71436 32.4614C4.38906 32.6675 3.96484 32.4349 3.96484 32.0498V9.52295C7.04658 7.36436 10.7411 6.10742 14.7128 6.10742C18.6845 6.10742 22.379 7.36436 25.4607 9.52295Z" fill="#D12898"/>
<path d="M47.8351 6.68887V29.9146C47.8351 30.2996 47.4105 30.5327 47.0855 30.3261C44.0356 28.3867 40.465 27.2716 36.6483 27.2716C32.5145 27.2716 28.6692 28.5798 25.4617 30.8266C25.1182 30.5859 24.7674 30.3562 24.4097 30.1375C24.1263 29.9643 23.9531 29.6567 23.9531 29.3245V7.1998C23.9531 6.43164 24.8177 5.98135 25.4471 6.42168L25.4617 6.43193C28.6692 4.18525 32.5146 2.87695 36.6483 2.87695C40.6918 2.87695 44.4591 4.12861 47.6236 6.28584C47.7565 6.37647 47.8351 6.52803 47.8351 6.68887Z" fill="#E9F3FE"/>
<path d="M25.4613 6.43193V30.8267C22.2538 28.58 18.4085 27.2717 14.2746 27.2717C10.458 27.2717 6.8873 28.3868 3.8374 30.3262C3.5125 30.5328 3.08789 30.2997 3.08789 29.9146V6.68887C3.08789 6.52803 3.16641 6.37647 3.29932 6.28584C6.46387 4.12861 10.2312 2.87695 14.2746 2.87695C18.4085 2.87705 22.2538 4.18525 25.4613 6.43193Z" fill="#C8E2FD"/>
<path d="M23.7071 14.0924C23.5646 14.2958 23.3373 14.4047 23.1066 14.4047C22.9615 14.4047 22.8149 14.3617 22.687 14.2721C20.1892 12.5225 17.2801 11.5977 14.2744 11.5977C11.2686 11.5977 8.35961 12.5225 5.86166 14.2721C5.53051 14.5041 5.07367 14.4238 4.84154 14.0924C4.60951 13.761 4.68998 13.3044 5.02123 13.0724C7.76664 11.1493 10.9662 10.1328 14.2743 10.1328C17.5823 10.1328 20.782 11.1492 23.5273 13.0724C23.8586 13.3043 23.9392 13.761 23.7071 14.0924ZM23.5274 16.6123C20.782 14.6893 17.5824 13.6728 14.2744 13.6728C10.9663 13.6728 7.76674 14.6892 5.02133 16.6123C4.68998 16.8443 4.60951 17.3011 4.84164 17.6323C5.07377 17.9638 5.53061 18.044 5.86176 17.812C8.35961 16.0624 11.2687 15.1376 14.2745 15.1376C17.2802 15.1376 20.1893 16.0624 22.6871 17.812C22.8151 17.9017 22.9616 17.9446 23.1067 17.9446C23.3375 17.9446 23.5647 17.8357 23.7072 17.6323C23.9392 17.3011 23.8586 16.8443 23.5274 16.6123ZM23.5274 20.1522C20.782 18.2292 17.5824 17.2127 14.2744 17.2127C10.9663 17.2127 7.76674 18.2291 5.02133 20.1522C4.68998 20.3843 4.60951 20.841 4.84164 21.1723C5.07377 21.5037 5.53061 21.584 5.86176 21.352C8.35961 19.6023 11.2687 18.6775 14.2745 18.6775C17.2802 18.6775 20.1893 19.6023 22.6871 21.352C22.8151 21.4416 22.9616 21.4846 23.1067 21.4846C23.3375 21.4846 23.5647 21.3757 23.7072 21.1723C23.9392 20.841 23.8586 20.3843 23.5274 20.1522ZM28.0785 14.2721C30.5763 12.5225 33.4854 11.5977 36.4912 11.5977C39.4969 11.5977 42.406 12.5225 44.9038 14.2721C45.0318 14.3617 45.1783 14.4047 45.3234 14.4047C45.5542 14.4047 45.7814 14.2958 45.9239 14.0924C46.1559 13.761 46.0754 13.3044 45.7442 13.0724C42.9988 11.1493 39.7992 10.1328 36.4912 10.1328C33.1831 10.1328 29.9835 11.1492 27.2381 13.0724C26.9068 13.3044 26.8263 13.7611 27.0584 14.0924C27.2906 14.4237 27.7473 14.5041 28.0785 14.2721ZM45.7442 16.6123C42.9988 14.6893 39.7992 13.6728 36.4912 13.6728C33.1831 13.6728 29.9835 14.6892 27.2381 16.6123C26.9068 16.8443 26.8263 17.3011 27.0584 17.6323C27.2906 17.9638 27.7474 18.044 28.0786 17.812C30.5764 16.0624 33.4855 15.1376 36.4913 15.1376C39.497 15.1376 42.4061 16.0624 44.9039 17.812C45.0319 17.9017 45.1784 17.9446 45.3235 17.9446C45.5543 17.9446 45.7815 17.8357 45.924 17.6323C46.156 17.3011 46.0755 16.8443 45.7442 16.6123ZM45.7442 20.1522C42.9988 18.2292 39.7992 17.2127 36.4912 17.2127C33.1831 17.2127 29.9835 18.2291 27.2381 20.1522C26.9068 20.3843 26.8263 20.841 27.0584 21.1723C27.2906 21.5037 27.7474 21.584 28.0786 21.352C30.5764 19.6023 33.4855 18.6775 36.4913 18.6775C39.497 18.6775 42.4061 19.6023 44.9039 21.352C45.0319 21.4416 45.1784 21.4846 45.3235 21.4846C45.5543 21.4846 45.7815 21.3757 45.924 21.1723C46.156 20.841 46.0755 20.3843 45.7442 20.1522Z" fill="#A7D0FC"/>
<path d="M33.7617 21.9727C33.7617 22.7816 32.8873 23.4375 31.8086 23.4375C30.7299 23.4375 29.8555 22.7816 29.8555 21.9727C29.8555 21.1637 30.7299 20.5078 31.8086 20.5078C31.9772 20.5078 32.1408 20.5238 32.2969 20.554V15.3809C32.2969 14.9764 32.6248 14.6484 33.0293 14.6484C33.4338 14.6484 33.7617 14.9764 33.7617 15.3809V21.9727Z" fill="#453D83"/>
<path d="M16.6719 7.07256V8.21318C16.6719 8.38759 16.5562 8.54082 16.3886 8.58877L11.3008 10.0424V18.896C11.3008 19.006 11.2765 19.1102 11.2331 19.2039C10.9751 20.0077 10.0103 20.605 8.85938 20.605C7.51104 20.605 6.41797 19.7852 6.41797 18.7739C6.41797 17.7627 7.51104 16.9429 8.85938 16.9429C9.20664 16.9429 9.53691 16.9973 9.83594 17.0952V9.91162C9.83594 9.89472 9.83652 9.87793 9.8377 9.86123C9.87256 9.0459 10.4255 8.33935 11.216 8.11347L16.174 6.69687C16.4234 6.62568 16.6719 6.81299 16.6719 7.07256Z" fill="#D12898"/>
<path d="M19.6016 16.8946C19.6016 17.7035 18.7271 18.3594 17.6484 18.3594C16.5697 18.3594 15.6953 17.7035 15.6953 16.8946C15.6953 16.0856 16.5697 15.4297 17.6484 15.4297C17.8171 15.4297 17.9807 15.4457 18.1367 15.4759V8.10403L13.2636 9.49632C13.0141 9.56761 12.7656 9.3802 12.7656 9.12073C12.7656 8.27122 13.3288 7.52454 14.1457 7.29114L18.5369 6.03655C18.6188 5.99485 18.7096 5.9681 18.8056 5.95979L19.1036 5.87464C19.3531 5.80335 19.6016 5.99075 19.6016 6.25022V16.8946Z" fill="#FF2EA6"/>
<path d="M21.7168 42.1562C21.7168 42.9652 20.8424 43.6211 19.7637 43.6211C18.685 43.6211 17.8105 42.9652 17.8105 42.1562C17.8105 41.3473 18.685 40.6914 19.7637 40.6914C19.9323 40.6914 20.0959 40.7074 20.252 40.7376V35.5645C20.252 35.16 20.5799 34.832 20.9844 34.832C21.3889 34.832 21.7168 35.16 21.7168 35.5645V42.1562Z" fill="#E9F3FE"/>
<path d="M38.2051 5.17578C38.6096 5.17578 38.9375 5.50371 38.9375 5.9082V12.2144C38.9375 12.3243 38.9132 12.4286 38.8698 12.5223C38.6119 13.3261 37.6471 13.9233 36.4961 13.9233C35.1478 13.9233 34.0547 13.1035 34.0547 12.0923C34.0547 11.0811 35.1478 10.2612 36.4961 10.2612C36.8434 10.2612 37.1736 10.3156 37.4727 10.4136V5.9082C37.4727 5.50371 37.8006 5.17578 38.2051 5.17578Z" fill="#FF9F22"/>
<path d="M38.2051 7.68558C37.8006 7.68558 37.4727 7.35765 37.4727 6.95315V3.22991C37.4727 3.21302 37.4732 3.19622 37.4744 3.17962C37.5092 2.36429 38.0621 1.65774 38.8527 1.43186L43.8107 0.0152628C44.0602 -0.0560262 44.3086 0.131376 44.3086 0.390849V1.53147C44.3086 1.70589 44.193 1.85921 44.0253 1.90706L38.9375 3.36077V6.95315C38.9375 7.35765 38.6096 7.68558 38.2051 7.68558Z" fill="#FFC14F"/>
</g>
<defs>
<clipPath id="clip0_1002_1003">
<rect width="50" height="50" fill="white" transform="translate(0.558594)"/>
</clipPath>
</defs>
</svg>
