<svg width="51" height="50" viewBox="0 0 51 50" fill="none" xmlns="http://www.w3.org/2000/svg">
<path d="M50.5586 25C50.5586 38.8071 39.3657 50 25.5586 50C11.7515 50 0.558594 38.8071 0.558594 25C0.558594 11.1929 11.7515 0 25.5586 0C39.3657 0 50.5586 11.1929 50.5586 25Z" fill="#FFC14F"/>
<path d="M47.6289 23.6826C47.6289 33.0536 40.0321 40.6504 30.6611 40.6504C21.2901 40.6504 13.6934 33.0536 13.6934 23.6826C13.6934 14.3116 21.2901 6.71484 30.6611 6.71484C40.0321 6.71484 47.6289 14.3116 47.6289 23.6826Z" fill="#FFCD71"/>
<path d="M1.30479 31.0859C0.817383 29.1376 0.558594 27.0987 0.558594 24.9993C0.558594 23.2146 0.745605 21.4735 1.10117 19.7946C1.38789 19.1756 1.78311 18.6055 2.2748 18.1139L5.27393 15.1148C6.00645 14.3823 7.0001 13.9707 8.03604 13.9707H14.6211C17.2056 17.5328 22.3408 17.9914 25.5155 14.9437L26.529 13.9707H38.003C39.0391 13.9707 40.0326 14.3822 40.7651 15.1148L43.7642 18.1139C44.8632 19.2127 45.4805 20.703 45.4805 22.257V29.8093C45.4805 30.6183 44.8246 31.2741 44.0156 31.2741H38.2539V46.5406C34.5329 48.7383 30.1931 49.9993 25.5586 49.9993C18.6062 49.9993 12.3166 47.1613 7.78516 42.5807V31.2741H2.02344C1.7623 31.2741 1.51709 31.2058 1.30479 31.0859Z" fill="#51489A"/>
<path d="M3.27539 31.2742H2.02344C1.21445 31.2742 0.558594 30.6184 0.558594 29.8094V22.2571C0.558594 20.7031 1.17588 19.2128 2.2748 18.1139L5.27393 15.1148C6.00645 14.3823 7.0001 13.9707 8.03604 13.9707H8.25566C8.16387 14.0589 8.07529 14.1521 7.99023 14.2504L4.99111 17.716C3.89229 18.9857 3.2749 20.7079 3.2749 22.5037V31.2307C3.2749 31.2451 3.2751 31.2597 3.27539 31.2742ZM8.76172 28.1126C8.22236 28.1126 7.78516 28.5498 7.78516 29.0892V42.5808C8.4043 43.2066 9.05625 43.8 9.73828 44.3579V29.0892C9.73828 28.5498 9.30107 28.1126 8.76172 28.1126Z" fill="#453D83"/>
<path d="M45.4813 22.2572V29.8095C45.4813 30.6185 44.8255 31.2743 44.0165 31.2743H38.2711V29.1227C38.2711 28.6025 37.8786 28.1483 37.3595 28.1147C36.7907 28.0779 36.318 28.5283 36.318 29.0892V39.3113C35.2092 39.4688 34.0761 39.5503 32.9238 39.5503C19.71 39.5503 8.99805 28.8384 8.99805 15.6245C8.99805 15.0687 9.01699 14.5172 9.0543 13.9708H13.8112C14.2896 13.9708 14.7505 14.1683 15.0674 14.5265C17.7613 17.5725 22.515 17.825 25.5164 14.9437L26.5299 13.9707H38.0039C39.0399 13.9707 40.0335 14.3822 40.766 15.1148L43.7651 18.114C44.8641 19.2129 45.4813 20.7032 45.4813 22.2572Z" fill="#5F55AF"/>
<path d="M23.0195 25.3637C18.3886 25.3637 14.6211 21.5962 14.6211 16.9652V14.9766H31.418V16.9652C31.418 21.5962 27.6505 25.3637 23.0195 25.3637Z" fill="#453D83"/>
<path d="M29.9128 16.4036V17.0404C29.9128 20.8414 26.8205 23.9337 23.0195 23.9337C19.2186 23.9337 16.1263 20.8414 16.1263 17.0404V16.4036H29.9128ZM31.2696 13.9707H13.6934V16.9233C13.6934 22.0657 17.8065 26.3282 22.9488 26.3663C28.1319 26.4048 32.3457 22.2146 32.3457 17.0404V15.0469C32.3457 14.4525 31.8639 13.9707 31.2696 13.9707ZM31.3203 37.5971C31.3203 42.1814 27.6039 45.8979 23.0195 45.8979C18.4352 45.8979 14.7188 42.1814 14.7188 37.5971C14.7188 33.0127 18.4352 29.2963 23.0195 29.2963C27.6039 29.2963 31.3203 33.0127 31.3203 37.5971Z" fill="#FF2EA6"/>
<path d="M31.3199 37.5971C31.3199 39.1132 30.9134 40.5344 30.2035 41.7576C28.9803 42.4676 27.5591 42.874 26.043 42.874C21.4586 42.874 17.7422 39.1576 17.7422 34.5732C17.7422 33.0571 18.1487 31.6359 18.8586 30.4127C20.0818 29.7028 21.503 29.2963 23.0191 29.2963C27.6035 29.2963 31.3199 33.0127 31.3199 37.5971ZM31.2692 13.9707H20.642V16.4036H29.9124V16.949C29.9124 20.7538 26.7997 23.9468 22.9949 23.9336C22.6689 23.9324 22.3482 23.9086 22.0343 23.8635C21.2998 23.7579 20.642 24.3247 20.642 25.0668C20.642 25.6706 21.0842 26.1855 21.6818 26.2714C22.0936 26.3305 22.514 26.3627 22.9412 26.3662C28.1133 26.4086 32.3453 22.0989 32.3453 16.9267V15.0468C32.3453 14.4525 31.8635 13.9707 31.2692 13.9707Z" fill="#FF50B5"/>
<path d="M27.3164 32.3655V33.5061C27.3164 33.6805 27.2008 33.8337 27.0331 33.8817L21.9453 35.3353V40.5756C21.9453 40.6856 21.921 40.7899 21.8776 40.8835C21.6196 41.6873 20.6548 42.2846 19.5039 42.2846C18.1556 42.2846 17.0625 41.4648 17.0625 40.4535C17.0625 39.4423 18.1556 38.6225 19.5039 38.6225C19.8512 38.6225 20.1814 38.6769 20.4805 38.7748V35.2045C20.4805 35.1876 20.4811 35.1708 20.4822 35.1542C20.517 34.3389 21.0699 33.6324 21.8605 33.4065L26.8186 31.9899C27.068 31.9186 27.3164 32.106 27.3164 32.3655Z" fill="#FFC14F"/>
<path d="M27.3164 32.3654V39.8431C27.3164 40.6521 26.442 41.308 25.3633 41.308C24.2846 41.308 23.4102 40.6521 23.4102 39.8431C23.4102 39.0341 24.2846 38.3783 25.3633 38.3783C25.5319 38.3783 25.6955 38.3943 25.8516 38.4245V34.2192L24.6071 34.5748C24.0073 34.7462 23.4102 34.2958 23.4102 33.6719C23.4102 33.2527 23.6881 32.8842 24.0912 32.7691L26.8185 31.9899C27.068 31.9185 27.3164 32.1059 27.3164 32.3654Z" fill="#FFD993"/>
<path d="M27.351 4.76466C27.5847 5.2508 27.38 5.83419 26.8939 6.06788L24.2534 7.33702C23.7672 7.57071 23.1838 7.36603 22.9502 6.8799C22.7165 6.39376 22.9212 5.81036 23.4073 5.57667L26.0478 4.30753C26.5339 4.07394 27.1174 4.27853 27.351 4.76466Z" fill="#A7D0FC"/>
<path d="M39.2229 10.9767L20.7393 19.8607L19.4702 17.2202C17.601 13.3313 19.2383 8.66354 23.1272 6.7944L27.5281 4.67916C31.417 2.81002 36.0847 4.44733 37.9539 8.33619L39.2229 10.9767Z" fill="#C8E2FD"/>
<path d="M39.2225 10.9767L25.1397 17.7455L23.8706 15.1049C22.0014 11.2161 23.6387 6.5483 27.5276 4.67916C31.4165 2.81002 36.0842 4.44733 37.9534 8.33619L39.2225 10.9767Z" fill="#FFF5F5"/>
<path d="M34.1465 13.417C34.3802 13.9031 34.1755 14.4865 33.6893 14.7202L22.0424 20.3182C21.5563 20.5519 20.9729 20.3472 20.7392 19.861C20.5055 19.3749 20.7102 18.7915 21.1963 18.5578L32.8432 12.9599C33.3294 12.7263 33.9129 12.931 34.1465 13.417Z" fill="#86BEFB"/>
<path d="M19.8932 18.1001L19.4701 17.2199C19.3269 16.9218 19.2042 16.6191 19.1016 16.3135L21.5115 15.1552C21.9977 14.9215 22.5811 15.1262 22.8147 15.6124C23.0484 16.0985 22.8437 16.6819 22.3576 16.9156L19.8932 18.1001Z" fill="#86BEFB"/>
<path d="M45.3848 8.01466C45.6185 8.5008 45.4138 9.08419 44.9277 9.31788L29.5268 16.7202C29.0406 16.9539 28.4572 16.7492 28.2236 16.2631C27.99 15.777 28.1945 15.1936 28.6807 14.9599L44.0816 7.55753C44.5676 7.32394 45.1511 7.52853 45.3848 8.01466Z" fill="#A7D0FC"/>
<path d="M29.2426 13.0654C29.1513 13.1093 29.0469 13.1246 28.9433 13.1058C28.7605 13.0724 28.6125 12.9382 28.5614 12.7594L28.1112 11.1828L26.5571 10.6599C26.381 10.6007 26.2537 10.4466 26.229 10.2624C26.2042 10.0781 26.286 9.89598 26.4402 9.79208L27.8005 8.87665L27.8176 7.2371C27.8194 7.05126 27.9267 6.88261 28.0942 6.80214C28.2617 6.72157 28.4604 6.74315 28.6067 6.8578L29.8977 7.86854L31.4623 7.37821C31.6397 7.32264 31.8332 7.37255 31.9615 7.50702C32.0899 7.64139 32.1307 7.8371 32.067 8.01161L31.5045 9.55184L32.4544 10.8884C32.5621 11.0397 32.5744 11.2393 32.4861 11.4029C32.4362 11.4955 32.3591 11.5675 32.2678 11.6113C32.1978 11.6449 32.1194 11.6621 32.0388 11.6592L30.4002 11.6002L29.4225 12.9167C29.3749 12.9813 29.3126 13.0318 29.2426 13.0654Z" fill="#BC157D"/>
<path d="M28.1281 6.97653L29.6213 8.14567L31.4308 7.57848L30.7803 9.35983L31.879 10.9055L29.9839 10.8374L28.8533 12.3598L28.3325 10.5364L26.5351 9.93161L28.1085 8.87282L28.1281 6.97653ZM27.705 6.09635C27.37 6.25739 27.1554 6.59469 27.1516 6.96637L27.1373 8.34928L25.9899 9.12145C25.6815 9.32897 25.5177 9.69362 25.5674 10.062C25.617 10.4303 25.8715 10.7386 26.2237 10.8572L27.5344 11.2982L27.9142 12.628C28.0163 12.9854 28.3125 13.2539 28.6782 13.3206C28.8851 13.3583 29.0939 13.3277 29.2764 13.24C29.4166 13.1726 29.5411 13.0716 29.6374 12.9421L30.4619 11.8317L31.8439 11.8814C32.0052 11.8872 32.1619 11.853 32.302 11.7857C32.4845 11.698 32.6388 11.5541 32.7386 11.3689C32.915 11.0417 32.8904 10.6427 32.6751 10.3397L31.8739 9.21247L32.3483 7.91344C32.4758 7.56432 32.394 7.17301 32.1374 6.90417C31.8807 6.63532 31.4936 6.53542 31.1389 6.64665L29.8193 7.06022L28.7304 6.20759C28.4375 5.97848 28.0401 5.93542 27.705 6.09635Z" fill="#FF50B5"/>
</svg>
