<svg width="51" height="50" viewBox="0 0 51 50" fill="none" xmlns="http://www.w3.org/2000/svg">
<g clip-path="url(#clip0_1002_982)">
<path d="M50.0586 25C50.0586 35.5683 43.5011 44.6049 34.2329 48.263C34.1326 48.3025 34.0753 48.1313 33.9744 48.1696C33.5584 48.3275 33.1507 48.3716 32.7244 48.5076C32.5812 48.5533 32.3807 48.9111 32.2364 48.9543C29.9629 49.6346 27.5534 50 25.0586 50C11.2515 50 0.0585938 38.8071 0.0585938 25C0.0585938 11.1929 11.2515 0 25.0586 0C38.8657 0 50.0586 11.1929 50.0586 25Z" fill="#76B6FA"/>
<path d="M44.7568 29.48C44.7568 38.7877 37.2114 46.333 27.9038 46.333C18.5962 46.333 11.0508 38.7876 11.0508 29.48C11.0508 20.1724 18.5962 12.627 27.9038 12.627C37.2114 12.627 44.7568 20.1723 44.7568 29.48Z" fill="#A7D0FC"/>
<path d="M8.38049 14.3086L7.91848 15.1533C7.90051 15.1862 7.87366 15.213 7.84084 15.231L6.99612 15.693C6.86067 15.7671 6.86067 15.9616 6.99612 16.0357L7.84084 16.4977C7.87366 16.5156 7.90051 16.5425 7.91848 16.5753L8.38049 17.42C8.45461 17.5555 8.64915 17.5555 8.72317 17.42L9.18518 16.5753C9.20315 16.5425 9.23 16.5156 9.26282 16.4977L10.1075 16.0357C10.243 15.9615 10.243 15.767 10.1075 15.693L9.26282 15.231C9.23 15.213 9.20315 15.1862 9.18518 15.1533L8.72317 14.3086C8.64915 14.1732 8.45452 14.1732 8.38049 14.3086ZM40.0149 35.599L40.8222 34.123C40.8963 33.9875 41.0908 33.9875 41.1649 34.123L41.9722 35.599C41.9902 35.6318 42.017 35.6588 42.0498 35.6767L43.5259 36.484C43.6614 36.5581 43.6614 36.7527 43.5259 36.8267L42.0498 37.634C42.017 37.652 41.9902 37.6788 41.9722 37.7116L41.1649 39.1877C41.0907 39.3232 40.8962 39.3232 40.8222 39.1877L40.0149 37.7116C39.9969 37.6788 39.97 37.6519 39.9372 37.634L38.4612 36.8267C38.3257 36.7526 38.3257 36.558 38.4612 36.484L39.9372 35.6767C39.97 35.6587 39.997 35.6318 40.0149 35.599Z" fill="#DD7D00"/>
<path d="M34.3947 47.0128C34.3947 47.441 34.3394 47.8607 34.2323 48.264C33.5798 48.5215 32.9139 48.7524 32.2357 48.9553C32.6438 48.3933 32.8641 47.7197 32.8641 47.0128C32.8641 46.1275 32.5187 45.2948 31.8918 44.6678C30.0019 42.7779 29.8915 38.1179 31.7813 36.228C32.0802 35.9292 32.5647 35.9292 32.8637 36.228C33.1626 36.5269 33.1626 37.0114 32.8637 37.3104C31.5706 38.6034 31.6811 42.2925 32.9741 43.5855C33.8902 44.5016 34.3947 45.7188 34.3947 47.0128Z" fill="#FFF5F5"/>
<path d="M17.238 48.7527C16.6251 48.5511 16.0226 48.3263 15.4317 48.0796C15.087 47.3741 14.5089 46.8191 13.7802 46.501C11.3309 45.4314 10.2084 42.5686 11.2781 40.1194C11.4472 39.7321 11.8984 39.5551 12.2857 39.7243C12.6731 39.8934 12.8499 40.3446 12.6808 40.7319C11.949 42.4078 12.717 44.3665 14.3928 45.0983C15.5801 45.6168 16.4941 46.5658 16.9664 47.7705C17.0923 48.0914 17.1827 48.4203 17.238 48.7527Z" fill="#FF9F22"/>
<path d="M49.2559 18.3378C49.2093 18.4572 49.1615 18.5763 49.1122 18.6954C46.7196 24.4716 39.9243 32.5479 33.7554 34.7974C33.5336 34.8783 33.4888 35.1673 33.6677 35.3214C34.3955 35.9483 34.8562 36.8764 34.8562 37.9122V37.9171C34.8558 38.1855 34.6325 38.4004 34.3641 38.4004H28.5124C28.244 38.4004 28.0207 38.1855 28.0203 37.9171C28.0203 37.9155 28.0203 37.9138 28.0203 37.9122C28.0203 36.8763 28.481 35.9482 29.2088 35.3214C29.3877 35.1673 29.3429 34.8784 29.1211 34.7974C22.9522 32.548 16.1569 24.4716 13.7643 18.6954C13.715 18.5764 13.6672 18.4572 13.6206 18.3378C9.09996 6.74127 24.8668 -0.740855 31.4381 8.10348C38.0096 -0.740855 53.7764 6.74127 49.2559 18.3378Z" fill="#FF2EA6"/>
<path d="M49.2562 18.3377C49.2096 18.4572 49.1617 18.5763 49.1124 18.6954C48.0911 21.1609 46.2677 24.0456 44.0332 26.7172C41.637 28.68 39.1068 30.1157 36.7479 30.531C36.7139 30.5699 35.6549 30.5699 35.6208 30.531C29.0427 29.373 21.1326 20.2799 18.5104 13.9496C18.4611 13.8306 18.4132 13.7114 18.3666 13.5919C17.1739 10.5321 17.3935 7.75874 18.484 5.49614C22.6687 3.34731 28.1823 3.72124 31.4385 8.10356C38.0099 -0.740871 53.7767 6.74116 49.2562 18.3377ZM35.0898 37.826H27.7872C27.3827 37.826 27.0548 38.154 27.0548 38.5584C27.0548 38.963 27.3827 39.2909 27.7872 39.2909H35.0898C35.4943 39.2909 35.8222 38.963 35.8222 38.5584C35.8222 38.154 35.4943 37.826 35.0898 37.826Z" fill="#FF50B5"/>
<path d="M45.8866 9.14864C48.0272 11.2893 48.9628 13.8241 47.9765 14.8105C46.9902 15.7968 44.4553 14.861 42.3147 12.7205C40.1741 10.5799 39.2384 8.04503 40.2247 7.0587C41.2111 6.07238 43.7459 7.00812 45.8866 9.14864Z" fill="#FF72C3"/>
<path d="M24.2599 29.5189C24.229 29.5982 24.1971 29.6774 24.1644 29.7564C22.5993 33.5351 18.1975 38.7955 14.1506 40.3809C13.9268 40.4686 13.8705 40.7525 14.0394 40.9233C14.4452 41.3335 14.6958 41.8975 14.6958 42.5199V42.5232C14.6955 42.7018 14.5455 42.8442 14.367 42.8442H10.4843C10.3057 42.8442 10.1557 42.7019 10.1554 42.5232C10.1554 42.5222 10.1554 42.521 10.1554 42.5199C10.1554 41.8974 10.406 41.3334 10.8118 40.9233C10.9808 40.7525 10.9245 40.4686 10.7007 40.3809C6.65369 38.7955 2.25203 33.5351 0.686892 29.7564C0.654177 29.6773 0.622341 29.5982 0.591384 29.5189C-2.41106 21.8167 8.06101 16.8472 12.4257 22.7215C16.7903 16.8472 27.2624 21.8167 24.2599 29.5189Z" fill="#51489A"/>
<path d="M3.46991 25.8851C3.42811 25.7842 3.38748 25.6831 3.34803 25.5819C2.81493 24.2144 2.61463 22.9143 2.67987 21.7096C5.51209 19.5463 9.95057 19.3906 12.4254 22.7215C16.79 16.8472 27.2621 21.8167 24.2597 29.5189C24.2287 29.5982 24.197 29.6774 24.1641 29.7564C22.8459 32.9391 19.5152 37.173 16.0791 39.3768C10.9616 37.2734 5.44549 30.6544 3.46991 25.8851Z" fill="#5F55AF"/>
<path d="M10.5365 34.4064C11.2562 36.2335 11.4328 37.8749 10.9311 38.0726C10.4293 38.2702 9.439 36.9494 8.71927 35.1224C7.99954 33.2953 7.82288 31.6539 8.32464 31.4563C8.8265 31.2585 9.81673 32.5794 10.5365 34.4064ZM17.5212 33.7029C17.1165 33.3464 15.7468 34.2395 14.4618 35.6979C14.092 36.1174 13.7697 36.5381 13.5076 36.9328C13.6472 35.9196 13.731 34.6201 13.731 33.2031C13.731 29.9671 13.2938 27.3438 12.7544 27.3438C12.2151 27.3438 11.7779 29.9671 11.7779 33.2031C11.7779 36.4392 12.2151 39.0625 12.7544 39.0625C12.8015 39.0625 12.8478 39.0425 12.8931 39.0038C13.327 39.3048 14.6677 38.4184 15.9272 36.9891C17.2122 35.5308 17.9259 34.0595 17.5212 33.7029Z" fill="#51489A"/>
<path d="M20.9459 23.4446C22.424 24.9227 23.0699 26.6729 22.389 27.3538C21.708 28.0348 19.9577 27.3888 18.4798 25.9108C17.0018 24.4327 16.3558 22.6825 17.0367 22.0016C17.7177 21.3206 19.468 21.9666 20.9459 23.4446Z" fill="#8078BF"/>
<path d="M22.2219 9.20898C22.2219 10.018 21.3475 10.6738 20.2688 10.6738C19.1901 10.6738 18.3156 10.018 18.3156 9.20898C18.3156 8.4 19.1901 7.74414 20.2688 7.74414C20.4374 7.74414 20.601 7.76016 20.7571 7.79033V2.61719C20.7571 2.2127 21.085 1.88477 21.4895 1.88477C21.894 1.88477 22.2219 2.2127 22.2219 2.61719V9.20898ZM6.99377 23.4156L6.53176 24.2604C6.51379 24.2932 6.48694 24.32 6.45413 24.338L5.6094 24.8C5.47395 24.8741 5.47395 25.0687 5.6094 25.1427L6.45413 25.6047C6.48694 25.6227 6.51379 25.6495 6.53176 25.6823L6.99377 26.5271C7.0679 26.6625 7.26243 26.6625 7.33645 26.5271L7.79846 25.6823C7.81643 25.6495 7.84329 25.6227 7.8761 25.6047L8.72083 25.1427C8.85627 25.0686 8.85627 24.874 8.72083 24.8L7.8761 24.338C7.84329 24.32 7.81643 24.2932 7.79846 24.2604L7.33645 23.4156C7.26243 23.2802 7.0679 23.2802 6.99377 23.4156ZM35.977 16.7804L36.7843 15.3043C36.8584 15.1688 37.053 15.1688 37.127 15.3043L37.9343 16.7804C37.9523 16.8132 37.9791 16.84 38.0119 16.858L39.488 17.6653C39.6235 17.7395 39.6235 17.934 39.488 18.008L38.0119 18.8153C37.9791 18.8333 37.9523 18.8602 37.9343 18.893L37.127 20.369C37.0529 20.5045 36.8583 20.5045 36.7843 20.369L35.977 18.893C35.959 18.8602 35.9322 18.8333 35.8993 18.8153L34.4233 18.008C34.2878 17.9339 34.2878 17.7394 34.4233 17.6653L35.8993 16.858C35.9321 16.8401 35.959 16.8132 35.977 16.7804Z" fill="#FFF5F5"/>
<path d="M15.3574 42.7891C15.3574 43.1936 15.0295 43.5215 14.625 43.5215H10.2305C9.82598 43.5215 9.49805 43.1936 9.49805 42.7891C9.49805 42.3846 9.82598 42.0566 10.2305 42.0566H14.625C15.0295 42.0566 15.3574 42.3845 15.3574 42.7891Z" fill="#5F55AF"/>
</g>
<defs>
<clipPath id="clip0_1002_982">
<rect width="50" height="50" fill="white" transform="translate(0.0585938)"/>
</clipPath>
</defs>
</svg>
