<svg width="51" height="50" viewBox="0 0 51 50" fill="none" xmlns="http://www.w3.org/2000/svg">
<g clip-path="url(#clip0_1002_940)">
<path d="M50.5586 25C50.5586 38.8071 39.3657 50 25.5586 50C11.7515 50 0.558594 38.8071 0.558594 25C0.558594 11.1929 11.7515 0 25.5586 0C39.3657 0 50.5586 11.1929 50.5586 25Z" fill="#6100C1"/>
<path d="M47.2196 26.4282C47.2196 37.6921 38.0885 46.8231 26.8247 46.8231C15.5609 46.8231 6.42969 37.692 6.42969 26.4282C6.42969 15.1645 15.5608 6.0332 26.8246 6.0332C38.0884 6.0332 47.2196 15.1644 47.2196 26.4282Z" fill="#4F0698"/>
<path d="M0.682617 27.5069H50.4346C50.3833 28.0219 50.3165 28.5322 50.2345 29.0375H0.882812C0.800781 28.5322 0.733887 28.0219 0.682617 27.5069ZM2.78555 35.3301H48.3317C48.5596 34.8285 48.7714 34.3181 48.9664 33.7995H2.15088C2.3459 34.3181 2.55762 34.8285 2.78555 35.3301ZM1.60586 32.1838H49.5113C49.6621 31.6801 49.7976 31.1697 49.917 30.6532H1.2002C1.31963 31.1697 1.45508 31.6801 1.60586 32.1838ZM50.5506 24.3607H0.566602C0.561328 24.5734 0.558594 24.7868 0.558594 25.0009C0.558594 25.2989 0.563867 25.5957 0.574121 25.8913H50.543C50.5533 25.5957 50.5585 25.2989 50.5585 25.0009C50.5586 24.7868 50.5559 24.5734 50.5506 24.3607ZM48.4436 14.9219H2.67354C2.45225 15.4236 2.24697 15.9341 2.0583 16.4524H49.0589C48.8702 15.9341 48.665 15.4236 48.4436 14.9219ZM49.5849 18.0682H1.53232C1.38721 18.5721 1.25752 19.0824 1.14375 19.5987H49.9733C49.8597 19.0824 49.73 18.572 49.5849 18.0682ZM50.2736 21.2145H0.843555C0.766699 21.7198 0.705078 22.2302 0.658984 22.745H50.4581C50.4121 22.2302 50.3505 21.7198 50.2736 21.2145Z" fill="#8078BF"/>
<path d="M23.684 15.2513V17.6542C23.684 18.0217 23.4404 18.3445 23.0871 18.4455L16.5844 20.3335L12.3687 21.508V39.379C12.3687 39.379 12.3175 40.6113 12.2259 40.8086C11.6823 42.5017 9.64971 43.7599 7.22529 43.7599C4.38477 43.7599 2.08203 42.0329 2.08203 39.9024C2.08203 37.7721 4.38477 36.045 7.22529 36.045C7.95674 36.045 8.65264 36.1596 9.28262 36.366V21.2323C9.28262 21.1955 9.28398 21.1589 9.28652 21.1227C9.36133 19.4064 10.5257 17.9197 12.1899 17.4442L22.6099 14.4972C23.1356 14.347 23.684 14.7045 23.684 15.2513ZM40.0959 8.73242C39.4024 8.73242 38.8403 9.29453 38.8403 9.98799V22.3028C38.3276 22.1349 37.7614 22.0416 37.1662 22.0416C34.8548 22.0416 32.981 23.447 32.981 25.1806C32.981 26.9141 34.8548 28.3194 37.1662 28.3194C39.139 28.3194 40.7928 27.2958 41.2353 25.9181C41.3099 25.7574 41.3516 25.5784 41.3516 25.3897V9.98799C41.3515 9.29453 40.7894 8.73242 40.0959 8.73242Z" fill="#FF9F22"/>
<path d="M29.8563 13.5181V35.9424C29.8563 37.6468 28.0142 39.0284 25.7417 39.0284C23.4692 39.0284 21.627 37.6468 21.627 35.9424C21.627 34.238 23.4692 32.8564 25.7417 32.8564C26.0969 32.8564 26.4416 32.8902 26.7703 32.9536V17.4235L16.5041 20.3567C15.9784 20.5069 15.4551 20.1121 15.4551 19.5653C15.4551 17.7756 16.6415 16.2027 18.3624 15.7111L27.6133 13.068C27.7858 12.98 27.9772 12.9235 28.1798 12.9061L28.8073 12.7268C29.333 12.5767 29.8563 12.9714 29.8563 13.5181ZM49.7059 4.47736L41.2064 6.90578C39.8522 7.29269 38.9047 8.50256 38.8438 9.89894C38.8418 9.92844 38.8407 9.95812 38.8407 9.9882V18.1882C38.8407 18.8817 39.4028 19.4438 40.0963 19.4438C40.7897 19.4438 41.3519 18.8817 41.3519 18.1882V10.2124L50.0737 7.72043C50.3612 7.6383 50.5594 7.37551 50.5594 7.07658V5.12121C50.5595 4.67629 50.1336 4.3551 49.7059 4.47736Z" fill="#FFC14F"/>
<path d="M28.3125 24.5807C27.4604 24.5807 26.7695 23.8898 26.7695 23.0377V17.1393C26.7695 16.2871 27.4604 15.5963 28.3125 15.5963C29.1646 15.5963 29.8555 16.2871 29.8555 17.1393V23.0377C29.8555 23.8898 29.1646 24.5807 28.3125 24.5807ZM40.0954 14.6492C40.7889 14.6492 41.351 14.0871 41.351 13.3937V10.1267C41.351 9.4332 40.7889 8.87109 40.0954 8.87109C39.402 8.87109 38.8398 9.4332 38.8398 10.1267V13.3937C38.8398 14.0871 39.402 14.6492 40.0954 14.6492Z" fill="#FFE1AA"/>
<path d="M32.063 8.12502L32.525 8.96975C32.543 9.00256 32.5698 9.02942 32.6027 9.04739L33.4474 9.5094C33.5828 9.58352 33.5828 9.77805 33.4474 9.85208L32.6027 10.3141C32.5698 10.3321 32.5429 10.3589 32.525 10.3917L32.063 11.2365C31.9889 11.3719 31.7944 11.3719 31.7203 11.2365L31.2583 10.3917C31.2404 10.3589 31.2135 10.3321 31.1807 10.3141L30.336 9.85208C30.2005 9.77795 30.2005 9.58342 30.336 9.5094L31.1807 9.04739C31.2135 9.02942 31.2404 9.00256 31.2583 8.96975L31.7203 8.12502C31.7944 7.98958 31.989 7.98958 32.063 8.12502Z" fill="#FF9F22"/>
<path d="M41.6608 29.7774L42.1228 30.6221C42.1407 30.6549 42.1676 30.6819 42.2004 30.6997L43.0451 31.1617C43.1806 31.2359 43.1806 31.4304 43.0451 31.5044L42.2004 31.9664C42.1676 31.9844 42.1406 32.0112 42.1228 32.0441L41.6608 32.8888C41.5866 33.0242 41.3921 33.0242 41.3181 32.8888L40.8561 32.0441C40.8381 32.0112 40.8113 31.9844 40.7784 31.9664L39.9337 31.5044C39.7983 31.4303 39.7983 31.2358 39.9337 31.1617L40.7784 30.6997C40.8113 30.6818 40.8381 30.6549 40.8561 30.6221L41.3181 29.7774C41.3921 29.6419 41.5867 29.6419 41.6608 29.7774ZM12.1128 26.4483L10.6367 27.2556C10.5013 27.3297 10.5013 27.5242 10.6367 27.5983L12.1128 28.4056C12.1456 28.4236 12.1725 28.4504 12.1905 28.4832L12.9978 29.9593C13.0719 30.0947 13.2664 30.0947 13.3405 29.9593L14.1478 28.4832C14.1657 28.4504 14.1926 28.4235 14.2254 28.4056L15.7015 27.5983C15.8369 27.5241 15.8369 27.3296 15.7015 27.2556L14.2254 26.4483C14.1926 26.4303 14.1657 26.4034 14.1478 26.3706L13.3405 24.8946C13.2663 24.7591 13.0718 24.7591 12.9978 24.8946L12.1905 26.3706C12.1726 26.4034 12.1456 26.4304 12.1128 26.4483Z" fill="#FFF5F5"/>
</g>
<defs>
<clipPath id="clip0_1002_940">
<rect width="50" height="50" fill="white" transform="translate(0.558594)"/>
</clipPath>
</defs>
</svg>
