<svg width="51" height="50" viewBox="0 0 51 50" fill="none" xmlns="http://www.w3.org/2000/svg">
<g clip-path="url(#clip0_1002_1023)">
<path d="M50.0552 25.3563C49.8655 38.984 38.6771 50.0052 25.048 50C20.7166 49.9983 16.6426 48.8951 13.0912 46.9554C12.5911 46.6822 12.3835 46.072 12.6113 45.5496C13.9442 42.4921 14.6835 39.1164 14.6835 35.568C14.6835 26.6983 10.0646 18.9076 3.10083 14.4698C2.78286 14.2672 2.66938 13.8563 2.84272 13.5216C7.00141 5.48926 15.3885 0 25.0577 0C38.9833 0 50.2497 11.3859 50.0552 25.3563Z" fill="#6100C1"/>
<path d="M44.493 22.2504C44.493 33.525 35.3531 42.6648 24.0785 42.6648C12.8039 42.6648 3.66406 33.525 3.66406 22.2504C3.66406 10.9758 12.8039 1.83594 24.0785 1.83594C35.3531 1.83594 44.493 10.9759 44.493 22.2504Z" fill="#4F0698"/>
<path d="M42.6752 5.58102L48.406 4.36803C48.8213 4.28014 49.1432 4.7274 48.928 5.09322L45.9584 10.1424C45.8505 10.3259 45.8738 10.5581 46.0161 10.7164L49.932 15.0729C50.2158 15.3886 49.9893 15.891 49.5649 15.8876L43.7073 15.8404C43.4945 15.8386 43.305 15.9751 43.2391 16.1774L41.4242 21.7469C41.2926 22.1505 40.7444 22.2056 40.5351 21.8364L37.6471 16.74C37.5422 16.5548 37.3295 16.4589 37.1213 16.503L31.3904 17.716C30.9752 17.8039 30.6532 17.3566 30.8684 16.9908L33.838 11.9416C33.946 11.7581 33.9226 11.5259 33.7803 11.3676L29.8644 7.0111C29.5806 6.69537 29.8071 6.19303 30.2315 6.19645L36.0891 6.24362C36.3019 6.24537 36.4914 6.10895 36.5573 5.9066L38.3722 0.337072C38.5038 -0.0665411 39.052 -0.121619 39.2613 0.247619L42.1493 5.34401C42.2542 5.52916 42.467 5.62506 42.6752 5.58102Z" fill="#FFC14F"/>
<path d="M36.8047 27.3792L24.4867 29.5511C22.8932 29.8321 21.3737 28.7681 21.0927 27.1747L18.6212 13.1578C18.3402 11.5643 19.4042 10.0448 20.9976 9.76384L33.3156 7.59187C34.9091 7.31091 36.4286 8.37488 36.7095 9.96834L39.1811 23.9852C39.4621 25.5787 38.3981 27.0982 36.8047 27.3792Z" fill="#1380E2"/>
<path d="M36.8031 27.3791L28.0785 28.9175C26.485 29.1984 24.9655 28.1344 24.6845 26.541L22.213 12.5242C21.932 10.9307 22.996 9.41121 24.5894 9.13025L33.314 7.59187C34.9075 7.31091 36.427 8.37488 36.708 9.96834L39.1796 23.9852C39.4605 25.5786 38.3966 27.0981 36.8031 27.3791Z" fill="#3493F8"/>
<path d="M45.3858 40.3727L13.7704 45.9473C12.1055 46.2409 10.5177 45.1291 10.2242 43.4642L6.11342 20.1503C5.81986 18.4854 6.93158 16.8976 8.59652 16.604L40.2119 11.0294C41.8768 10.7359 43.4646 11.8476 43.7581 13.5125L44.1126 15.523C43.1513 17 42.7868 18.787 43.0927 20.5226L44.8461 30.4667C45.1471 32.1736 46.0747 33.7064 47.4472 34.7648L47.5146 34.8167L47.8689 36.8263C48.1625 38.4914 47.0508 40.079 45.3858 40.3727Z" fill="#76B6FA"/>
<path d="M10.2773 21.4878L20.6753 19.6544C22.2688 19.3734 23.7883 20.4374 24.0692 22.0308L26.4538 35.5547C26.7348 37.1481 25.6708 38.6677 24.0773 38.9486L13.6794 40.782L10.2773 21.4878Z" fill="#1380E2"/>
<path d="M47.5151 34.8157L23.2161 39.1003C21.6226 39.3813 20.1031 38.3173 19.8221 36.7238L17.4376 23.2C17.1566 21.6065 18.2206 20.087 19.814 19.8061L44.1131 15.5215L47.5151 34.8157Z" fill="#3493F8"/>
<path d="M11.0202 28.8183C11.3138 30.4832 10.2021 32.071 8.53711 32.3646L4.51748 33.0734C2.85254 33.3669 1.26475 32.2552 0.971191 30.5902L0.0623047 25.4358C0.0598633 25.2912 0.0585938 25.1461 0.0585938 25.0008C0.0585938 20.8417 1.07422 16.9199 2.871 13.4697L5.13496 13.0704C6.7999 12.7769 8.3877 13.8886 8.68125 15.5537L11.0202 28.8183Z" fill="#1380E2"/>
<path d="M16.6751 43.2582C16.9687 44.9232 15.8569 46.511 14.192 46.8045C14.192 46.8045 8.74551 44.1221 6.94531 42.2303C2.67793 37.7458 0.0585938 31.6785 0.0585938 24.9993C0.0585938 22.1802 0.525195 19.4702 1.38535 16.9421L8.69902 15.6525C10.364 15.3589 11.9518 16.4706 12.2453 18.1357L16.6751 43.2582Z" fill="#86BEFB"/>
<path d="M16.6748 43.2583C16.9684 44.9233 15.8567 46.5111 14.1917 46.8046L13.1528 46.9878C10.8389 45.7323 8.74535 44.1222 6.94516 42.2304L2.98451 19.7685C2.69096 18.1036 3.80268 16.5158 5.46762 16.2222L8.69877 15.6525C10.3637 15.3589 11.9515 16.4706 12.2451 18.1357L16.6748 43.2583Z" fill="#A7D0FC"/>
<path d="M11.0292 36.2336L10.8565 36.2641C9.79416 36.4514 8.78117 35.7421 8.59387 34.6798L6.08273 20.4383C5.89543 19.376 6.60471 18.363 7.66701 18.1757L7.83976 18.1452C8.90207 17.9579 9.91506 18.6672 10.1024 19.7295L12.6135 33.9709C12.8008 35.0332 12.0915 36.0463 11.0292 36.2336Z" fill="#C8E2FD"/>
<path d="M41.5918 25.9142C42.6193 31.7416 38.7282 37.2986 32.9008 38.3262C27.0734 39.3537 21.5163 35.4626 20.4888 29.6352C19.4612 23.8077 23.3524 18.2507 29.1798 17.2232C35.0072 16.1956 40.5643 20.0867 41.5918 25.9142Z" fill="#C8E2FD"/>
<path d="M38.2479 30.3528C37.3302 32.9099 35.0755 34.9043 32.1799 35.3419C28.1811 35.9462 24.3599 33.2815 23.5457 29.3201C22.9525 26.4335 24.0618 23.6141 26.1665 21.8725C26.2905 21.7698 26.4791 21.8479 26.4953 22.0081C26.5183 22.2355 26.5498 22.4638 26.5901 22.6926C27.4743 27.7069 32.2561 31.0552 37.2704 30.171C37.5003 30.1305 37.7267 30.0817 37.9492 30.0252C38.1426 29.976 38.3153 30.165 38.2479 30.3528Z" fill="#453D83"/>
<path d="M38.577 26.4445C38.8189 27.8164 38.6792 29.1673 38.234 30.3884C37.2389 31.2242 36.0172 31.8177 34.6454 32.0595C30.4829 32.7935 26.5136 30.0141 25.7796 25.8517C25.5378 24.4799 25.6775 23.129 26.1226 21.9079C27.1177 21.0721 28.3394 20.4786 29.7113 20.2367C33.8738 19.5027 37.8431 22.282 38.577 26.4445Z" fill="#5F55AF"/>
<path d="M36.1648 24.3473C37.4285 25.611 37.8205 27.2681 37.0404 28.0482C36.2602 28.8284 34.6032 28.4364 33.3394 27.1727C32.0756 25.9089 31.6836 24.2519 32.4638 23.4717C33.244 22.6914 34.901 23.0834 36.1648 24.3473Z" fill="#8078BF"/>
<path d="M41.5929 25.9142C41.9517 27.949 41.7107 29.9508 40.9971 31.7383C40.766 32.3172 40.2011 32.6935 39.5778 32.6935C38.5023 32.6935 37.7512 31.6094 38.1507 30.6108C38.6929 29.2555 38.8545 27.7273 38.5269 26.1814C37.7033 22.2955 33.9807 19.6642 30.043 20.1869C29.4918 20.26 28.9631 20.3894 28.4616 20.5682C27.4595 20.9257 26.4043 20.1955 26.4043 19.1315V19.1313C26.4043 18.4858 26.8086 17.9081 27.4164 17.6904C27.9811 17.4882 28.5703 17.3308 29.1809 17.2231C35.0083 16.1957 40.5653 20.0868 41.5929 25.9142Z" fill="#E9F3FE"/>
<path d="M22.6881 12.028C22.8094 12.7148 22.351 13.3697 21.6642 13.491C20.9774 13.6123 20.3224 13.1539 20.2011 12.4671C20.0798 11.7803 20.5382 11.1253 21.225 11.004C21.9118 10.8827 22.5668 11.3412 22.6881 12.028ZM25.4537 10.2572C24.7669 10.3785 24.3085 11.0336 24.4298 11.7203C24.5511 12.4072 25.2062 12.8655 25.8929 12.7443C26.5797 12.623 27.0381 11.9679 26.9168 11.2812C26.7955 10.5944 26.1405 10.136 25.4537 10.2572ZM29.6825 9.51047C28.9957 9.63176 28.5373 10.2868 28.6586 10.9736C28.7799 11.6604 29.435 12.1188 30.1217 11.9975C30.8085 11.8762 31.2669 11.2211 31.1456 10.5344C31.0243 9.84758 30.3693 9.38918 29.6825 9.51047ZM33.9113 8.7636C33.2244 8.88489 32.766 9.53996 32.8873 10.2267C33.0086 10.9135 33.6637 11.3719 34.3504 11.2506C35.0372 11.1293 35.4956 10.4742 35.3743 9.78752C35.2531 9.10071 34.5981 8.64231 33.9113 8.7636Z" fill="#A7D0FC"/>
<path d="M16.0879 11.418C16.0879 12.227 15.2135 12.8828 14.1348 12.8828C13.0561 12.8828 12.1816 12.227 12.1816 11.418C12.1816 10.609 13.0561 9.95313 14.1348 9.95313C14.3034 9.95313 14.467 9.96914 14.623 9.99932V4.82617C14.623 4.42168 14.951 4.09375 15.3555 4.09375C15.76 4.09375 16.0879 4.42168 16.0879 4.82617V11.418ZM31.7021 23.4437L31.24 24.2884C31.2221 24.3212 31.1952 24.348 31.1624 24.366L30.3177 24.828C30.1822 24.9021 30.1822 25.0967 30.3177 25.1707L31.1624 25.6327C31.1952 25.6507 31.2222 25.6775 31.24 25.7104L31.7021 26.5551C31.7762 26.6905 31.9707 26.6905 32.0447 26.5551L32.5067 25.7104C32.5247 25.6775 32.5516 25.6507 32.5844 25.6327L33.4291 25.1707C33.5646 25.0966 33.5646 24.9021 33.4291 24.828L32.5844 24.366C32.5516 24.348 32.5247 24.3212 32.5067 24.2884L32.0447 23.4437C31.9707 23.3082 31.7762 23.3082 31.7021 23.4437ZM36.8404 10.6006L37.6478 9.12451C37.7219 8.98906 37.9164 8.98906 37.9904 9.12451L38.7978 10.6006C38.8157 10.6334 38.8426 10.6603 38.8754 10.6782L40.3515 11.4855C40.4869 11.5597 40.4869 11.7542 40.3515 11.8282L38.8754 12.6355C38.8426 12.6535 38.8157 12.6804 38.7978 12.7132L37.9904 14.1893C37.9163 14.3247 37.7218 14.3247 37.6478 14.1893L36.8404 12.7132C36.8225 12.6804 36.7956 12.6535 36.7628 12.6355L35.2867 11.8282C35.1513 11.7541 35.1513 11.5596 35.2867 11.4855L36.7628 10.6782C36.7956 10.6603 36.8226 10.6333 36.8404 10.6006Z" fill="#FFF5F5"/>
</g>
<defs>
<clipPath id="clip0_1002_1023">
<rect width="50" height="50" fill="white" transform="translate(0.0585938)"/>
</clipPath>
</defs>
</svg>
