<svg width="173" height="52" viewBox="0 0 173 52" fill="none" xmlns="http://www.w3.org/2000/svg">
<path d="M55.1546 19.512H60.9786V35.032H58.1626L56.4986 33.432C55.9866 33.752 55.3999 34.072 54.7386 34.392C54.0773 34.712 53.3519 34.9787 52.5626 35.192C51.7946 35.4267 50.9946 35.544 50.1626 35.544C48.8613 35.544 47.7946 35.288 46.9626 34.776C46.1306 34.2427 45.5119 33.528 45.1066 32.632C44.7226 31.7147 44.5306 30.68 44.5306 29.528V19.512H50.3546V28.984C50.3546 29.4533 50.4719 29.88 50.7066 30.264C50.9413 30.648 51.3786 30.84 52.0186 30.84C52.2746 30.84 52.5839 30.7973 52.9466 30.712C53.3306 30.6053 53.7146 30.488 54.0986 30.36C54.5039 30.2107 54.8559 30.072 55.1546 29.944V19.512ZM70.2058 41.688L64.3818 42.008V19.512H67.2938L70.2058 22.424V41.688ZM68.3178 25.528L66.6858 21.784C67.0698 21.3147 67.5605 20.8667 68.1578 20.44C68.7765 19.992 69.4592 19.6293 70.2058 19.352C70.9525 19.0747 71.7205 18.936 72.5098 18.936C74.0458 18.936 75.4112 19.224 76.6058 19.8C77.8005 20.376 78.7392 21.2613 79.4218 22.456C80.1258 23.6507 80.4778 25.176 80.4778 27.032C80.4778 28.8667 80.1258 30.4027 79.4218 31.64C78.7392 32.8773 77.7792 33.8053 76.5418 34.424C75.3258 35.0427 73.8965 35.352 72.2538 35.352C71.6138 35.352 70.9738 35.256 70.3338 35.064C69.7152 34.872 69.0965 34.5733 68.4778 34.168C67.8805 33.7413 67.2832 33.1867 66.6858 32.504L68.3178 29.08C68.9365 29.656 69.5445 30.104 70.1418 30.424C70.7392 30.7227 71.3152 30.872 71.8698 30.872C72.3605 30.872 72.7978 30.7227 73.1818 30.424C73.5658 30.1253 73.8752 29.688 74.1098 29.112C74.3445 28.536 74.4618 27.8533 74.4618 27.064C74.4618 26.2747 74.3445 25.6133 74.1098 25.08C73.8965 24.5253 73.5765 24.1093 73.1498 23.832C72.7445 23.5547 72.2325 23.416 71.6138 23.416C71.1018 23.416 70.5792 23.608 70.0458 23.992C69.5125 24.376 68.9365 24.888 68.3178 25.528ZM97.5371 28.696H88.0971C88.2464 29.1227 88.4704 29.496 88.7691 29.816C89.0678 30.136 89.4518 30.3813 89.9211 30.552C90.3904 30.7227 90.9558 30.808 91.6171 30.808C92.5558 30.808 93.3771 30.6907 94.0811 30.456C94.8064 30.2213 95.4038 29.9867 95.8731 29.752L97.5051 33.688C97.0998 33.9867 96.5558 34.264 95.8731 34.52C95.1904 34.776 94.4331 34.9787 93.6011 35.128C92.7691 35.2773 91.9158 35.352 91.0411 35.352C89.2704 35.352 87.6811 35.0427 86.2731 34.424C84.8651 33.8053 83.7558 32.8987 82.9451 31.704C82.1558 30.488 81.7611 29.0053 81.7611 27.256C81.7611 25.5067 82.1238 24.0133 82.8491 22.776C83.5958 21.5387 84.5984 20.5893 85.8571 19.928C87.1371 19.2667 88.5558 18.936 90.1131 18.936C91.7771 18.936 93.1531 19.3093 94.2411 20.056C95.3504 20.7813 96.1718 21.7627 96.7051 23C97.2598 24.216 97.5371 25.5493 97.5371 27V28.696ZM87.9371 25.816H91.9691C91.9691 25.5173 91.8944 25.1973 91.7451 24.856C91.6171 24.5147 91.4038 24.2267 91.1051 23.992C90.8278 23.736 90.4438 23.608 89.9531 23.608C89.6118 23.608 89.2811 23.7147 88.9611 23.928C88.6411 24.12 88.3851 24.3867 88.1931 24.728C88.0224 25.048 87.9371 25.4107 87.9371 25.816ZM105.608 35H99.7836V19.512H102.696L104.104 21.4C104.53 21.1013 105.032 20.8133 105.608 20.536C106.205 20.2373 106.824 19.992 107.464 19.8C108.125 19.5867 108.744 19.48 109.32 19.48L110.504 24.152C109.992 24.152 109.437 24.2267 108.84 24.376C108.264 24.5253 107.688 24.728 107.112 24.984C106.557 25.24 106.056 25.5387 105.608 25.88V35ZM118.553 35H112.729V12.76L118.553 12.408V23.928L124.345 19.032L127.833 23.032L123.705 26.136L128.953 35H122.681L119.609 29.208L118.553 30.008V35ZM136.389 35H130.565V19.48H136.389V35ZM133.445 17.368C132.592 17.368 131.856 17.0587 131.237 16.44C130.618 15.8213 130.309 15.0853 130.309 14.232C130.309 13.3573 130.618 12.6107 131.237 11.992C131.856 11.352 132.592 11.032 133.445 11.032C134.32 11.032 135.066 11.352 135.685 11.992C136.325 12.6107 136.645 13.3573 136.645 14.232C136.645 15.0853 136.325 15.8213 135.685 16.44C135.066 17.0587 134.32 17.368 133.445 17.368ZM148.908 31.256V12.76L154.732 12.408V35H151.788L148.908 31.256ZM150.796 28.76L152.428 32.504C152.044 32.9733 151.543 33.432 150.924 33.88C150.327 34.3067 149.655 34.6587 148.908 34.936C148.183 35.2133 147.415 35.352 146.604 35.352C145.089 35.352 143.724 35.064 142.508 34.488C141.313 33.912 140.364 33.0267 139.66 31.832C138.977 30.616 138.636 29.0907 138.636 27.256C138.636 25.4 138.977 23.864 139.66 22.648C140.364 21.4107 141.335 20.4827 142.572 19.864C143.809 19.2453 145.239 18.936 146.86 18.936C147.5 18.936 148.129 19.032 148.748 19.224C149.388 19.416 150.007 19.7253 150.604 20.152C151.223 20.5573 151.831 21.1013 152.428 21.784L150.796 25.208C150.177 24.632 149.569 24.1947 148.972 23.896C148.375 23.576 147.799 23.416 147.244 23.416C146.775 23.416 146.337 23.5653 145.932 23.864C145.548 24.1627 145.239 24.6 145.004 25.176C144.769 25.7307 144.652 26.4133 144.652 27.224C144.652 28.0133 144.759 28.6853 144.972 29.24C145.207 29.7733 145.537 30.1787 145.964 30.456C146.391 30.7333 146.903 30.872 147.5 30.872C148.012 30.872 148.535 30.68 149.068 30.296C149.601 29.912 150.177 29.4 150.796 28.76ZM157.356 33.528L158.988 29.848C159.415 30.04 159.895 30.2213 160.428 30.392C160.983 30.5413 161.527 30.6693 162.06 30.776C162.594 30.8827 163.042 30.936 163.404 30.936C163.66 30.936 163.884 30.904 164.076 30.84C164.29 30.776 164.45 30.6907 164.556 30.584C164.684 30.4773 164.748 30.36 164.748 30.232C164.748 30.1467 164.684 30.0507 164.556 29.944C164.428 29.816 164.247 29.6987 164.012 29.592C163.778 29.464 163.511 29.3573 163.212 29.272C162.359 28.9733 161.506 28.6107 160.652 28.184C159.799 27.736 159.084 27.1813 158.508 26.52C157.954 25.8587 157.676 25.0587 157.676 24.12C157.676 22.4987 158.284 21.2293 159.5 20.312C160.716 19.3947 162.402 18.936 164.556 18.936C164.983 18.936 165.538 18.9787 166.22 19.064C166.924 19.1493 167.65 19.3093 168.396 19.544C169.143 19.7787 169.815 20.1307 170.412 20.6L168.78 24.28C168.162 24.0027 167.511 23.7787 166.828 23.608C166.146 23.4373 165.527 23.352 164.972 23.352C164.503 23.352 164.119 23.416 163.82 23.544C163.522 23.672 163.372 23.8427 163.372 24.056C163.372 24.184 163.522 24.3333 163.82 24.504C164.14 24.6747 164.535 24.8453 165.004 25.016C165.858 25.3147 166.7 25.688 167.532 26.136C168.364 26.5627 169.058 27.1067 169.612 27.768C170.167 28.408 170.444 29.208 170.444 30.168C170.444 31.7893 169.9 33.0587 168.812 33.976C167.746 34.8933 166.135 35.352 163.98 35.352C163.554 35.352 162.924 35.2987 162.092 35.192C161.282 35.0853 160.439 34.904 159.564 34.648C158.69 34.3707 157.954 33.9973 157.356 33.528Z" fill="white"/>
<path d="M2.99888 15.3212C1.49904 9.03615 6.26424 3 12.7258 3H23.1642C27.7929 3 31.8166 6.17654 32.891 10.6788L38.6183 34.6788C40.1181 40.9638 35.353 47 28.8914 47H18.453C13.8243 47 9.80056 43.8235 8.72615 39.3212L2.99888 15.3212Z" fill="#FF7D56"/>
<path d="M12.056 33.656L13.976 29.272C14.36 29.4853 14.84 29.6987 15.416 29.912C16.0133 30.1253 16.632 30.3067 17.272 30.456C17.9333 30.584 18.52 30.648 19.032 30.648C19.6507 30.648 20.1627 30.5627 20.568 30.392C20.9947 30.2213 21.3147 30.008 21.528 29.752C21.7413 29.4747 21.848 29.208 21.848 28.952C21.848 28.696 21.6773 28.44 21.336 28.184C21.016 27.9067 20.6 27.6293 20.088 27.352C19.576 27.0533 19.0427 26.744 18.488 26.424C17.784 25.9973 17.048 25.5493 16.28 25.08C15.5333 24.6107 14.8293 24.088 14.168 23.512C13.5067 22.936 12.9733 22.2853 12.568 21.56C12.1627 20.8133 11.96 19.9813 11.96 19.064C11.9813 17.8693 12.312 16.8027 12.952 15.864C13.6133 14.9253 14.552 14.1893 15.768 13.656C16.984 13.1013 18.4133 12.824 20.056 12.824C21.144 12.824 22.264 12.984 23.416 13.304C24.5893 13.6027 25.6027 14.04 26.456 14.616L24.728 18.552C23.96 18.2747 23.32 18.072 22.808 17.944C22.3173 17.816 21.8693 17.7307 21.464 17.688C21.0587 17.624 20.6107 17.592 20.12 17.592C19.4587 17.592 18.936 17.752 18.552 18.072C18.168 18.3707 17.976 18.7227 17.976 19.128C17.976 19.4267 18.1253 19.704 18.424 19.96C18.744 20.216 19.1493 20.472 19.64 20.728C20.152 20.9627 20.696 21.2507 21.272 21.592C22.04 22.04 22.808 22.5093 23.576 23C24.3653 23.4907 25.08 24.0347 25.72 24.632C26.36 25.2293 26.872 25.8907 27.256 26.616C27.6613 27.32 27.864 28.12 27.864 29.016C27.864 30.232 27.512 31.3307 26.808 32.312C26.1253 33.272 25.1333 34.0293 23.832 34.584C22.5307 35.1387 20.984 35.416 19.192 35.416C18.6373 35.416 18.0293 35.3733 17.368 35.288C16.728 35.2027 16.0773 35.0853 15.416 34.936C14.776 34.7653 14.1573 34.5733 13.56 34.36C12.984 34.1467 12.4827 33.912 12.056 33.656Z" fill="white"/>
</svg>
