<svg width="209" height="63" viewBox="0 0 209 63" fill="none" xmlns="http://www.w3.org/2000/svg">
<path d="M66.7505 24.2357H73.8065V43.0388H70.3948L68.3788 41.1003C67.7585 41.488 67.0477 41.8757 66.2465 42.2634C65.4452 42.6511 64.5665 42.9742 63.6102 43.2326C62.6797 43.5169 61.7105 43.6591 60.7025 43.6591C59.1259 43.6591 57.8335 43.3489 56.8255 42.7286C55.8175 42.0825 55.068 41.2166 54.5769 40.1311C54.1117 39.0197 53.8791 37.7662 53.8791 36.3705V24.2357H60.9351V35.7114C60.9351 36.28 61.0772 36.7969 61.3615 37.2622C61.6459 37.7274 62.1757 37.96 62.9511 37.96C63.2612 37.96 63.636 37.9083 64.0754 37.8049C64.5406 37.6757 65.0059 37.5335 65.4711 37.3785C65.9622 37.1975 66.3886 37.0295 66.7505 36.8745V24.2357ZM84.9856 51.1028L77.9296 51.4905V24.2357H81.4576L84.9856 27.7637V51.1028ZM82.6983 31.5243L80.721 26.9883C81.1863 26.4197 81.7807 25.8769 82.5044 25.36C83.2539 24.8172 84.081 24.3778 84.9856 24.0418C85.8903 23.7058 86.8207 23.5378 87.777 23.5378C89.6379 23.5378 91.2921 23.8868 92.7395 24.5846C94.1869 25.2825 95.3241 26.3551 96.1512 27.8025C97.0041 29.2498 97.4306 31.0978 97.4306 33.3465C97.4306 35.5692 97.0041 37.4302 96.1512 38.9292C95.3241 40.4283 94.161 41.5526 92.6619 42.3022C91.1887 43.0517 89.457 43.4265 87.4669 43.4265C86.6915 43.4265 85.9161 43.3102 85.1407 43.0775C84.3912 42.8449 83.6416 42.4831 82.8921 41.992C82.1684 41.4751 81.4447 40.8031 80.721 39.976L82.6983 35.8277C83.4478 36.5255 84.1844 37.0683 84.9081 37.456C85.6318 37.8178 86.3296 37.9988 87.0016 37.9988C87.5961 37.9988 88.1259 37.8178 88.5912 37.456C89.0564 37.0942 89.4312 36.5643 89.7155 35.8665C89.9998 35.1686 90.1419 34.3415 90.1419 33.3852C90.1419 32.4289 89.9998 31.6277 89.7155 30.9815C89.457 30.3095 89.0693 29.8055 88.5524 29.4695C88.0613 29.1335 87.441 28.9655 86.6915 28.9655C86.0712 28.9655 85.4379 29.1982 84.7918 29.6634C84.1456 30.1286 83.4478 30.7489 82.6983 31.5243ZM118.099 35.3625H106.662C106.843 35.8794 107.114 36.3317 107.476 36.7194C107.838 37.1071 108.303 37.4043 108.871 37.6111C109.44 37.8178 110.125 37.9212 110.926 37.9212C112.063 37.9212 113.059 37.7791 113.911 37.4948C114.79 37.2105 115.514 36.9262 116.083 36.6418L118.06 41.4105C117.569 41.7723 116.91 42.1083 116.083 42.4185C115.255 42.7286 114.338 42.9742 113.33 43.1551C112.322 43.336 111.288 43.4265 110.228 43.4265C108.083 43.4265 106.158 43.0517 104.452 42.3022C102.746 41.5526 101.402 40.4542 100.42 39.0068C99.4634 37.5335 98.9853 35.7372 98.9853 33.6178C98.9853 31.4985 99.4247 29.6892 100.303 28.1902C101.208 26.6911 102.423 25.5409 103.948 24.7397C105.498 23.9385 107.217 23.5378 109.104 23.5378C111.12 23.5378 112.787 23.9902 114.105 24.8948C115.449 25.7735 116.444 26.9625 117.091 28.4615C117.763 29.9348 118.099 31.5502 118.099 33.3077V35.3625ZM106.468 31.8732H111.353C111.353 31.5114 111.262 31.1237 111.081 30.7102C110.926 30.2966 110.668 29.9477 110.306 29.6634C109.97 29.3532 109.505 29.1982 108.91 29.1982C108.497 29.1982 108.096 29.3274 107.708 29.5858C107.321 29.8185 107.011 30.1415 106.778 30.5551C106.571 30.9428 106.468 31.3822 106.468 31.8732ZM127.876 43H120.82V24.2357H124.348L126.054 26.5231C126.571 26.1612 127.178 25.8123 127.876 25.4763C128.6 25.1145 129.349 24.8172 130.125 24.5846C130.926 24.3262 131.676 24.1969 132.373 24.1969L133.808 29.8572C133.188 29.8572 132.516 29.9477 131.792 30.1286C131.094 30.3095 130.396 30.5551 129.698 30.8652C129.026 31.1754 128.419 31.5372 127.876 31.9508V43ZM143.56 43H136.504V16.0554L143.56 15.6289V29.5858L150.577 23.6542L154.803 28.5003L149.801 32.2609L156.16 43H148.561L144.839 35.9828L143.56 36.952V43ZM165.169 43H158.113V24.1969H165.169V43ZM161.602 21.6382C160.568 21.6382 159.677 21.2634 158.927 20.5138C158.178 19.7643 157.803 18.8726 157.803 17.8388C157.803 16.7791 158.178 15.8745 158.927 15.1249C159.677 14.3495 160.568 13.9618 161.602 13.9618C162.662 13.9618 163.566 14.3495 164.316 15.1249C165.091 15.8745 165.479 16.7791 165.479 17.8388C165.479 18.8726 165.091 19.7643 164.316 20.5138C163.566 21.2634 162.662 21.6382 161.602 21.6382ZM180.336 38.464V16.0554L187.392 15.6289V43H183.826L180.336 38.464ZM182.624 35.44L184.601 39.976C184.136 40.5446 183.528 41.1003 182.779 41.6431C182.055 42.16 181.241 42.5865 180.336 42.9225C179.458 43.2585 178.527 43.4265 177.545 43.4265C175.71 43.4265 174.056 43.0775 172.583 42.3797C171.135 41.6818 169.985 40.6092 169.132 39.1618C168.305 37.6886 167.892 35.8406 167.892 33.6178C167.892 31.3692 168.305 29.5083 169.132 28.0351C169.985 26.536 171.161 25.4117 172.66 24.6622C174.159 23.9126 175.891 23.5378 177.855 23.5378C178.631 23.5378 179.393 23.6542 180.143 23.8868C180.918 24.1194 181.668 24.4942 182.391 25.0111C183.141 25.5022 183.877 26.1612 184.601 26.9883L182.624 31.1366C181.874 30.4388 181.138 29.9089 180.414 29.5471C179.69 29.1594 178.992 28.9655 178.32 28.9655C177.752 28.9655 177.222 29.1465 176.731 29.5083C176.266 29.8702 175.891 30.4 175.607 31.0978C175.322 31.7698 175.18 32.5969 175.18 33.5791C175.18 34.5354 175.309 35.3495 175.568 36.0215C175.852 36.6677 176.253 37.1588 176.77 37.4948C177.287 37.8308 177.907 37.9988 178.631 37.9988C179.251 37.9988 179.884 37.7662 180.53 37.3009C181.176 36.8357 181.874 36.2154 182.624 35.44ZM190.572 41.2166L192.549 36.7582C193.066 36.9908 193.648 37.2105 194.294 37.4172C194.966 37.5982 195.625 37.7532 196.271 37.8825C196.917 38.0117 197.46 38.0763 197.899 38.0763C198.209 38.0763 198.481 38.0375 198.713 37.96C198.972 37.8825 199.166 37.7791 199.295 37.6498C199.45 37.5206 199.528 37.3785 199.528 37.2234C199.528 37.12 199.45 37.0037 199.295 36.8745C199.14 36.7194 198.92 36.5772 198.636 36.448C198.352 36.2929 198.028 36.1637 197.667 36.0603C196.633 35.6985 195.599 35.2591 194.565 34.7422C193.531 34.1994 192.665 33.5274 191.968 32.7262C191.296 31.9249 190.96 30.9557 190.96 29.8185C190.96 27.8542 191.696 26.3163 193.169 25.2049C194.643 24.0935 196.684 23.5378 199.295 23.5378C199.812 23.5378 200.484 23.5895 201.311 23.6929C202.164 23.7963 203.043 23.9902 203.947 24.2745C204.852 24.5588 205.666 24.9852 206.39 25.5538L204.412 30.0123C203.663 29.6763 202.875 29.4049 202.048 29.1982C201.22 28.9914 200.471 28.888 199.799 28.888C199.23 28.888 198.765 28.9655 198.403 29.1206C198.041 29.2757 197.86 29.4825 197.86 29.7409C197.86 29.896 198.041 30.0769 198.403 30.2837C198.791 30.4905 199.269 30.6972 199.838 30.904C200.872 31.2658 201.892 31.7182 202.9 32.2609C203.908 32.7778 204.748 33.4369 205.42 34.2382C206.092 35.0135 206.428 35.9828 206.428 37.1458C206.428 39.1102 205.769 40.648 204.451 41.7594C203.159 42.8708 201.208 43.4265 198.597 43.4265C198.08 43.4265 197.318 43.3618 196.31 43.2326C195.328 43.1034 194.307 42.8837 193.247 42.5735C192.187 42.2375 191.296 41.7852 190.572 41.2166Z" fill="#222F5E"/>
<path d="M3.56226 18.5623C1.74515 10.9478 7.51838 3.63477 15.3468 3.63477H27.9933C33.6011 3.63477 38.4761 7.48327 39.7778 12.9379L46.7166 42.0149C48.5337 49.6294 42.7605 56.9425 34.9321 56.9425H22.2856C16.6777 56.9425 11.8028 53.094 10.5011 47.6393L3.56226 18.5623Z" fill="#FF7D56"/>
<path d="M15.8184 42.8522C16.3354 43.1623 16.9428 43.4466 17.6406 43.7051C18.3643 43.9635 19.1138 44.1962 19.8892 44.4029C20.6904 44.5839 21.4788 44.726 22.2541 44.8294C23.0554 44.9328 23.792 44.9845 24.464 44.9845C26.6351 44.9845 28.5089 44.6485 30.0855 43.9765C31.6621 43.3045 32.864 42.3869 33.6911 41.2239C34.544 40.0349 34.9704 38.7039 34.9704 37.2306C34.9704 36.1451 34.7249 35.1759 34.2338 34.3229C33.7686 33.4442 33.1483 32.6429 32.3729 31.9192C31.5975 31.1955 30.7317 30.5365 29.7754 29.942C28.8449 29.3475 27.9144 28.7789 26.984 28.2362C26.2861 27.8226 25.6271 27.4737 25.0068 27.1894C24.4123 26.8792 23.9212 26.5691 23.5335 26.2589C23.1717 25.9488 22.9908 25.6128 22.9908 25.2509C22.9908 24.7599 23.2234 24.3334 23.6886 23.9715C24.1538 23.5839 24.7871 23.39 25.5883 23.39C26.1828 23.39 26.7255 23.4288 27.2166 23.5063C27.7077 23.558 28.2504 23.6614 28.8449 23.8165C29.4652 23.9715 30.2406 24.2171 31.1711 24.5531L33.2646 19.7845C32.2308 19.0866 31.0031 18.5568 29.5815 18.1949C28.1858 17.8072 26.8289 17.6134 25.5108 17.6134C23.5206 17.6134 21.7889 17.9494 20.3157 18.6214C18.8424 19.2675 17.7052 20.1592 16.904 21.2965C16.1286 22.4337 15.728 23.726 15.7021 25.1734C15.7021 26.2848 15.9477 27.2928 16.4388 28.1974C16.9298 29.0762 17.576 29.8645 18.3772 30.5623C19.1784 31.2602 20.0314 31.8934 20.936 32.462C21.8664 33.0306 22.7581 33.5734 23.6111 34.0903C24.2831 34.478 24.9292 34.8528 25.5495 35.2146C26.1698 35.5506 26.6738 35.8866 27.0615 36.2226C27.4751 36.5328 27.6818 36.8429 27.6818 37.1531C27.6818 37.4632 27.5526 37.7863 27.2941 38.1223C27.0357 38.4325 26.648 38.6909 26.1311 38.8977C25.64 39.1045 25.0197 39.2079 24.2701 39.2079C23.6498 39.2079 22.9391 39.1303 22.1378 38.9752C21.3624 38.7943 20.6129 38.5746 19.8892 38.3162C19.1914 38.0577 18.6098 37.7992 18.1446 37.5408L15.8184 42.8522Z" fill="white"/>
</svg>
