<svg width="89" height="88" viewBox="0 0 89 88" fill="none" xmlns="http://www.w3.org/2000/svg">
<path d="M88.5 44C88.5 68.3005 68.8005 88 44.5 88C20.1995 88 0.5 68.3005 0.5 44C0.5 19.6995 20.1995 0 44.5 0C68.8005 0 88.5 19.6995 88.5 44Z" fill="#FF7D56"/>
<path d="M83.3438 41.6797C83.3438 58.1726 69.9734 71.543 53.4805 71.543C36.9875 71.543 23.6172 58.1726 23.6172 41.6797C23.6172 25.1867 36.9875 11.8164 53.4805 11.8164C69.9734 11.8164 83.3438 25.1867 83.3438 41.6797Z" fill="#F0663C"/>
<path d="M28.8 26.26C26.44 26.26 24.04 26.58 21.6 27.22C19.16 27.86 16.88 29.02 14.76 30.7L19.98 38.08C21.38 37.12 22.74 36.4 24.06 35.92C25.38 35.4 26.6 35.14 27.72 35.14C28.76 35.14 29.6 35.26 30.24 35.5C30.92 35.74 31.42 36.06 31.74 36.46C32.06 36.86 32.22 37.32 32.22 37.84C32.22 38.84 31.7 39.66 30.66 40.3C29.66 40.9 28.3 41.2 26.58 41.2H21.66L22.56 49.78H28.74C29.94 49.78 30.92 50.1 31.68 50.74C32.48 51.38 32.88 52.28 32.88 53.44C32.88 54.12 32.66 54.72 32.22 55.24C31.82 55.76 31.26 56.16 30.54 56.44C29.86 56.72 29.06 56.86 28.14 56.86C26.74 56.86 25.34 56.64 23.94 56.2C22.58 55.72 21.04 54.94 19.32 53.86L13.5 61.12C15.78 62.6 18.22 63.72 20.82 64.48C23.46 65.28 25.88 65.68 28.08 65.68C31.32 65.68 34.14 65.16 36.54 64.12C38.94 63.12 40.8 61.72 42.12 59.92C43.48 58.12 44.16 56.06 44.16 53.74C44.16 52.54 43.92 51.36 43.44 50.2C43 49.04 42.38 47.98 41.58 47.02C40.82 46.02 39.96 45.24 39 44.68C39.72 44.28 40.42 43.66 41.1 42.82C41.82 41.94 42.4 40.98 42.84 39.94C43.28 38.86 43.5 37.84 43.5 36.88C43.5 34.76 42.88 32.92 41.64 31.36C40.44 29.76 38.74 28.52 36.54 27.64C34.34 26.72 31.76 26.26 28.8 26.26ZM59.528 26.26C56.848 26.26 54.528 26.62 52.568 27.34C50.608 28.02 49.068 28.7 47.948 29.38L49.328 38.26C50.048 37.86 50.948 37.42 52.028 36.94C53.108 36.46 54.268 36.06 55.508 35.74C56.748 35.38 57.968 35.2 59.168 35.2C60.688 35.2 61.888 35.44 62.768 35.92C63.688 36.36 64.148 37.08 64.148 38.08C64.148 38.84 63.848 39.6 63.248 40.36C62.688 41.08 61.968 41.82 61.088 42.58C60.248 43.3 59.388 44.04 58.508 44.8L47.168 54.64V61H74.288L73.568 52.42H62.648L65.108 50.32C66.948 48.76 68.508 47.28 69.788 45.88C71.108 44.44 72.108 42.98 72.788 41.5C73.508 40.02 73.868 38.46 73.868 36.82C73.868 34.3 73.248 32.26 72.008 30.7C70.808 29.14 69.128 28.02 66.968 27.34C64.848 26.62 62.368 26.26 59.528 26.26Z" fill="white"/>
</svg>
