<svg width="70" height="70" viewBox="0 0 70 70" fill="none" xmlns="http://www.w3.org/2000/svg">
<circle cx="35" cy="35" r="35" fill="#222F5E"/>
<path d="M28.4458 45.1C29.6014 45.1 30.6458 44.8111 31.5792 44.2333C32.5125 43.6111 33.2458 42.8333 33.7792 41.9C34.3125 40.9222 34.5792 39.9444 34.5792 38.9667C34.5792 37.8556 34.2903 36.8333 33.7125 35.9C33.1792 34.9667 32.5125 34.2556 31.7125 33.7667C31.8903 33.1889 32.3569 32.5667 33.1125 31.9C33.8681 31.2333 34.5569 30.7222 35.1792 30.3667L32.7792 25.0333C30.8236 25.7444 29.0458 26.7889 27.4458 28.1667C25.8903 29.5444 24.6458 31.0778 23.7125 32.7667C22.7792 34.4556 22.3125 36.1889 22.3125 37.9667C22.3125 40.1 22.9125 41.8333 24.1125 43.1667C25.3125 44.4556 26.7569 45.1 28.4458 45.1ZM42.4458 45.1C43.6014 45.1 44.6458 44.8111 45.5792 44.2333C46.5125 43.6111 47.2458 42.8333 47.7792 41.9C48.3125 40.9222 48.5792 39.9444 48.5792 38.9667C48.5792 38.2111 48.4458 37.5 48.1792 36.8333C47.9569 36.1667 47.6236 35.5667 47.1792 35.0333C46.7347 34.5 46.2458 34.0778 45.7125 33.7667C45.8903 33.1889 46.3569 32.5667 47.1125 31.9C47.8681 31.2333 48.5569 30.7222 49.1792 30.3667L46.7792 25.0333C44.8236 25.7444 43.0458 26.7889 41.4458 28.1667C39.8903 29.5444 38.6458 31.0778 37.7125 32.7667C36.7792 34.4556 36.3125 36.1889 36.3125 37.9667C36.3125 40.1 36.9125 41.8333 38.1125 43.1667C39.3125 44.4556 40.7569 45.1 42.4458 45.1Z" fill="white"/>
</svg>
