<svg width="94" height="88" viewBox="0 0 94 88" fill="none" xmlns="http://www.w3.org/2000/svg">
<path d="M91.5 44C91.5 68.3005 71.8005 88 47.5 88C23.1995 88 3.5 68.3005 3.5 44C3.5 19.6995 23.1995 0 47.5 0C71.8005 0 91.5 19.6995 91.5 44Z" fill="#6ED2EF"/>
<path d="M86.3438 41.6797C86.3438 58.1726 72.9734 71.543 56.4805 71.543C39.9875 71.543 26.6172 58.1726 26.6172 41.6797C26.6172 25.1867 39.9875 11.8164 56.4805 11.8164C72.9734 11.8164 86.3438 25.1867 86.3438 41.6797Z" fill="#5DC8E7"/>
<path d="M23.24 62V28.04H15.98L1.1 34.46L5.36 43.22L12.32 40.22V62H23.24ZM40.3072 51.2C40.5472 50.6 40.9872 50.02 41.6272 49.46C42.2672 48.9 43.0472 48.62 43.9672 48.62C45.0872 48.62 46.0072 49 46.7272 49.76C47.4472 50.48 47.8072 51.48 47.8072 52.76C47.8072 54.2 47.3072 55.34 46.3072 56.18C45.3072 57.02 44.0672 57.44 42.5872 57.44C41.1072 57.44 39.6672 57.2 38.2672 56.72C36.9072 56.2 35.3272 55.44 33.5272 54.44L28.0672 62.18C29.4272 63.1 30.9272 63.9 32.5672 64.58C34.2472 65.3 35.9472 65.84 37.6672 66.2C39.3872 66.56 40.9672 66.74 42.4072 66.74C45.5672 66.74 48.2672 66.14 50.5072 64.94C52.7872 63.74 54.5472 62.1 55.7872 60.02C57.0272 57.9 57.6472 55.48 57.6472 52.76C57.6472 50.4 57.1672 48.22 56.2072 46.22C55.2472 44.22 53.8472 42.62 52.0072 41.42C50.1672 40.18 47.8872 39.56 45.1672 39.56C44.3272 39.56 43.6072 39.66 43.0072 39.86C42.4472 40.02 41.9272 40.24 41.4472 40.52V36.62H54.8272L55.9072 28.04H32.2672L31.1272 51.2H40.3072ZM73.3794 62V52.64L75.3594 51.14L81.1194 62H92.8794L83.0394 45.38L90.7794 39.56L84.2394 32.06L73.3794 41.24V19.64L62.4594 20.3V62H73.3794Z" fill="white"/>
</svg>
