<svg width="89" height="88" viewBox="0 0 89 88" fill="none" xmlns="http://www.w3.org/2000/svg">
<path d="M88.5 44C88.5 68.3005 68.8005 88 44.5 88C20.1995 88 0.5 68.3005 0.5 44C0.5 19.6995 20.1995 0 44.5 0C68.8005 0 88.5 19.6995 88.5 44Z" fill="#FDCF3F"/>
<path d="M83.3438 41.6797C83.3438 58.1726 69.9734 71.543 53.4805 71.543C36.9875 71.543 23.6172 58.1726 23.6172 41.6797C23.6172 25.1867 36.9875 11.8164 53.4805 11.8164C69.9734 11.8164 83.3438 25.1867 83.3438 41.6797Z" fill="#F2C22C"/>
<path d="M33.24 61V27.04H25.98L11.1 33.46L15.36 42.22L22.32 39.22V61H33.24ZM38.0672 43.96C38.0672 47.4 38.8872 50.48 40.5272 53.2C42.1672 55.88 44.4272 58 47.3072 59.56C50.1872 61.08 53.4672 61.84 57.1472 61.84C60.8672 61.84 64.1672 61.06 67.0472 59.5C69.9672 57.94 72.2472 55.82 73.8872 53.14C75.5272 50.42 76.3472 47.32 76.3472 43.84C76.3472 40.44 75.5272 37.42 73.8872 34.78C72.2472 32.14 69.9872 30.06 67.1072 28.54C64.2272 27.02 60.9272 26.26 57.2072 26.26C53.4872 26.26 50.1872 27.02 47.3072 28.54C44.4272 30.06 42.1672 32.16 40.5272 34.84C38.8872 37.48 38.0672 40.52 38.0672 43.96ZM49.3472 43.78C49.3472 42.1 49.6872 40.62 50.3672 39.34C51.0472 38.02 51.9672 37 53.1272 36.28C54.3272 35.52 55.6672 35.14 57.1472 35.14C58.7072 35.14 60.0672 35.52 61.2272 36.28C62.4272 37.04 63.3672 38.1 64.0472 39.46C64.7272 40.78 65.0672 42.3 65.0672 44.02C65.0672 45.74 64.7272 47.28 64.0472 48.64C63.3672 49.96 62.4272 51.02 61.2272 51.82C60.0672 52.58 58.7272 52.96 57.2072 52.96C55.6872 52.96 54.3272 52.58 53.1272 51.82C51.9672 51.02 51.0472 49.94 50.3672 48.58C49.6872 47.18 49.3472 45.58 49.3472 43.78Z" fill="white"/>
</svg>
